<svg width="44" height="56" viewBox="0 0 44 56" fill="none" xmlns="http://www.w3.org/2000/svg">
<path d="M42.0634 7.22581L22.4382 0.755479C22.1637 0.66484 21.8706 0.66484 21.5958 0.755479L1.9704 7.22581C1.35037 7.43017 0.925781 8.05734 0.925781 8.7687V32.4932C0.925781 35.5789 2.06246 38.7378 4.30424 41.8819C6.01649 44.2831 8.38521 46.6944 11.3447 49.0487C16.3164 53.0037 21.212 55.4299 21.418 55.5312C21.6085 55.6249 21.8127 55.6719 22.0169 55.6719C22.221 55.6719 22.4253 55.6251 22.6158 55.5312C22.8218 55.4299 27.7173 53.0037 32.689 49.0487C35.6484 46.6944 38.0171 44.2831 39.7294 41.8819C41.9712 38.7379 43.1078 35.5791 43.1078 32.4932V8.7687C43.1079 8.05734 42.6834 7.43017 42.0634 7.22581ZM40.1763 32.4932C40.1763 37.9542 35.1904 43.0749 31.0077 46.409C27.2578 49.3981 23.4549 51.5191 22.017 52.281C20.5792 51.5191 16.7761 49.3981 13.0262 46.409C8.84342 43.0749 3.85737 37.9542 3.85737 32.4932V9.96719L22.0169 3.98012L40.1763 9.96719V32.4932Z" fill="url(#paint0_linear_1414_5505)"/>
<defs>
<linearGradient id="paint0_linear_1414_5505" x1="22.0168" y1="0.6875" x2="22.0168" y2="55.6719" gradientUnits="userSpaceOnUse">
<stop stop-color="#53CFFF"/>
<stop offset="1" stop-color="#32B2E4"/>
</linearGradient>
</defs>
</svg>
