<svg width="51" height="53" viewBox="0 0 51 53" fill="none" xmlns="http://www.w3.org/2000/svg">
<path d="M46.1528 4.93358C40.3561 -1.45382 30.7893 -1.1363 25.2702 5.50316C19.7506 -1.13607 10.1843 -1.45394 4.38747 4.9337C-1.37693 11.2237 -1.18056 21.5814 4.75876 27.6523C1.7202 30.8321 3.46095 36.546 7.59677 37.103C7.34903 40.206 9.75944 43.0516 12.6106 42.9988C12.7855 46.4148 15.9145 48.86 18.9145 47.9573C19.8987 52.027 24.63 53.4176 27.3443 50.4224C28.8859 48.7433 30.1119 47.6845 30.1901 45.1416C32.7373 45.0638 34.9413 42.6161 34.9801 39.8267C37.5518 39.7832 39.7925 37.3273 39.832 34.5103C42.5 34.4659 44.8132 31.8275 44.689 28.849L46.1526 27.2455C51.7669 21.094 51.7669 11.0849 46.1528 4.93358ZM6.96562 30.2198L8.34033 28.7135C8.69564 28.3242 9.16217 28.1296 9.62892 28.1296C11.2293 28.118 12.0646 30.286 10.9173 31.5371L9.54258 33.0434C7.76311 34.8384 5.32718 32.1704 6.96562 30.2198ZM10.7988 37.4798C10.7988 36.9464 10.9884 36.4449 11.3326 36.0678L12.708 34.5609C13.0521 34.1842 13.5094 33.9768 13.9958 33.9768C15.6097 33.9738 16.4278 36.1367 15.2842 37.3853L14.0713 38.7143C13.7005 39.1747 13.1912 39.4863 12.6209 39.4763C11.6417 39.4984 10.7785 38.553 10.7988 37.4798ZM16.3463 44.0306C15.6395 43.2875 15.6395 41.9503 16.3463 41.2071L17.5593 39.8779C18.2665 38.9581 19.508 38.8383 20.2981 39.7007C21.0085 40.4793 21.0085 41.7457 20.2981 42.5243L18.9233 44.0307C18.2129 44.8095 17.0568 44.8094 16.3463 44.0306ZM26.4441 46.4233L25.0694 47.9296C24.7252 48.3067 24.2676 48.5144 23.7809 48.5144C23.2941 48.5144 22.8365 48.3067 22.4923 47.9296C21.7855 47.1863 21.7852 45.8491 22.4924 45.106L23.867 43.5997C24.5774 42.8212 25.7336 42.8212 26.444 43.5996C27.151 44.3428 27.1511 45.68 26.4441 46.4233ZM40.9397 30.4075C40.2614 31.182 39.041 31.1821 38.3627 30.4075L31.2031 22.5627L28.9281 25.0555L36.0877 32.9003C36.7981 33.6788 36.7981 34.9454 36.0877 35.7239C35.3772 36.5026 34.2212 36.5024 33.5107 35.7239L26.4725 28.0121L26.3511 27.8791L24.076 30.3719L24.1975 30.5049L31.2356 38.2167C31.9462 38.9952 31.9462 40.2619 31.2356 41.0404C30.5251 41.8189 29.3691 41.8189 28.6586 41.0404L28.6572 41.0419C27.3499 39.6571 25.5229 39.2012 23.8728 39.6741C23.3475 37.3222 21.1898 35.5416 19.0199 35.5934C18.9147 33.062 16.9615 30.7752 14.6533 30.502C14.9579 26.1587 10.6045 23.1677 7.16885 25.3072C2.38406 20.6241 2.08934 12.403 6.66274 7.42637C11.2099 2.40917 18.7231 2.74162 22.9953 7.99596L19.0179 12.354L22.205 15.8462C24.6532 18.5288 28.4257 18.898 31.2385 16.9538L40.94 27.5839C41.6501 28.3623 41.6501 29.629 40.9397 30.4075ZM43.8778 24.7527L43.3875 25.2897C43.3317 25.2222 43.2741 25.156 43.2149 25.0911L31.365 12.107L30.2274 13.3534C28.6429 15.0895 26.0647 15.0897 24.4798 13.3534L23.5678 12.354L28.0651 7.42637C38.9895 -3.59079 53.9305 12.7905 43.8778 24.7527Z" fill="url(#paint0_linear_1414_5508)"/>
<defs>
<linearGradient id="paint0_linear_1414_5508" x1="25.2725" y1="0.327637" x2="25.2725" y2="52.0323" gradientUnits="userSpaceOnUse">
<stop stop-color="#53CFFF"/>
<stop offset="1" stop-color="#32B2E4"/>
</linearGradient>
</defs>
</svg>
