<svg width="62" height="44" viewBox="0 0 62 44" fill="none" xmlns="http://www.w3.org/2000/svg">
<path d="M52.7813 19.6069C54.565 18.2295 55.746 15.9382 55.746 13.3556C55.746 9.13057 52.6367 5.7135 48.7922 5.7135C44.9477 5.7135 41.8384 9.13057 41.8384 13.3556C41.8384 15.9382 43.0074 18.2295 44.8031 19.6069C43.2726 20.1897 41.8746 21.0903 40.6935 22.2558C39.0665 20.7327 37.1503 19.5672 35.0533 18.8785C37.5962 17.1832 39.3076 14.0972 39.3076 10.5875C39.3076 5.2367 35.3667 0.905762 30.4978 0.905762C25.6289 0.905762 21.688 5.24995 21.688 10.5875C21.688 14.0972 23.3873 17.1832 25.9423 18.8785C23.8694 19.5672 21.9773 20.7195 20.3624 22.2161C19.1813 21.0771 17.8074 20.1897 16.3009 19.6202C18.0846 18.2428 19.2657 15.9515 19.2657 13.3688C19.2657 9.14382 16.1563 5.72674 12.3118 5.72674C8.46737 5.72674 5.35804 9.14382 5.35804 13.3688C5.35804 15.9515 6.52705 18.2428 8.32275 19.6202C3.53824 21.4347 0.103516 26.4278 0.103516 32.2951V33.1693C0.103516 33.1958 0.127619 33.2222 0.151722 33.2222H14.8909C14.8065 33.9507 14.7583 34.7056 14.7583 35.4606V36.3612C14.7583 40.2551 17.6266 43.4072 21.1698 43.4072H39.8499C43.3931 43.4072 46.2614 40.2551 46.2614 36.3612V35.4606C46.2614 34.7056 46.2132 33.9507 46.1288 33.2222H60.9644C60.9885 33.2222 61.0126 33.1958 61.0126 33.1693V32.2951C60.9885 26.4146 57.5658 21.4214 52.7813 19.6069ZM43.7667 13.3423C43.7667 10.2961 46.0203 7.81937 48.7922 7.81937C51.5641 7.81937 53.8178 10.2961 53.8178 13.3423C53.8178 16.3488 51.6123 18.799 48.8886 18.8652C48.8525 18.8652 48.8284 18.8652 48.7922 18.8652C48.7561 18.8652 48.732 18.8652 48.6958 18.8652C45.9601 18.8123 43.7667 16.362 43.7667 13.3423ZM23.5922 10.5875C23.5922 6.41546 26.6774 3.02488 30.4737 3.02488C34.27 3.02488 37.3552 6.41546 37.3552 10.5875C37.3552 14.6138 34.4748 17.9116 30.8714 18.1368C30.7388 18.1368 30.6063 18.1368 30.4737 18.1368C30.3411 18.1368 30.2086 18.1368 30.076 18.1368C26.4725 17.9116 23.5922 14.6138 23.5922 10.5875ZM7.25015 13.3423C7.25015 10.2961 9.50381 7.81937 12.2757 7.81937C15.0476 7.81937 17.3012 10.2961 17.3012 13.3423C17.3012 16.3488 15.0958 18.799 12.3721 18.8652C12.336 18.8652 12.3118 18.8652 12.2757 18.8652C12.2395 18.8652 12.2154 18.8652 12.1793 18.8652C9.4556 18.8123 7.25015 16.362 7.25015 13.3423ZM15.2283 31.0899H2.05588C2.59821 25.4477 6.93681 21.0241 12.2034 20.9844C12.2275 20.9844 12.2516 20.9844 12.2757 20.9844C12.2998 20.9844 12.3239 20.9844 12.348 20.9844C14.8547 20.9976 17.1446 22.0174 18.9162 23.673C17.1807 25.7391 15.8912 28.2821 15.2283 31.0899ZM44.309 36.3612C44.309 39.0763 42.2964 41.2881 39.8258 41.2881H21.1457C18.6751 41.2881 16.6625 39.0763 16.6625 36.3612V35.4606C16.6625 27.2357 22.6401 20.5076 30.076 20.2692C30.2086 20.2824 30.3532 20.2824 30.4858 20.2824C30.6183 20.2824 30.7629 20.2824 30.8955 20.2692C38.3314 20.5076 44.309 27.2357 44.309 35.4606V36.3612ZM45.7432 31.0899C45.0803 28.2953 43.8149 25.7921 42.0915 23.726C43.8751 22.0307 46.1891 21.0109 48.7199 20.9844C48.744 20.9844 48.7681 20.9844 48.7922 20.9844C48.8163 20.9844 48.8404 20.9844 48.8645 20.9844C54.1311 21.0241 58.4697 25.4477 59.012 31.0899H45.7432Z" fill="url(#paint0_linear_1414_5400)"/>
<defs>
<linearGradient id="paint0_linear_1414_5400" x1="30.5581" y1="0.905762" x2="30.5581" y2="43.4072" gradientUnits="userSpaceOnUse">
<stop stop-color="#53CFFF"/>
<stop offset="1" stop-color="#32B2E4"/>
</linearGradient>
</defs>
</svg>
