<svg width="51" height="56" viewBox="0 0 51 56" fill="none" xmlns="http://www.w3.org/2000/svg">
<g clip-path="url(#clip0_1414_5436)">
<path d="M38.8631 55.6717H1.22673C0.858735 55.6717 0.515826 55.4586 0.327644 55.1104C0.139462 54.7622 0.133189 54.3315 0.308826 53.9764L19.127 16.1746C19.4929 15.4392 20.5969 15.4392 20.9628 16.1746L39.781 53.9764C39.9566 54.3315 39.9504 54.7622 39.7622 55.1104C39.574 55.4586 39.2311 55.6717 38.8631 55.6717ZM2.98728 53.3807H37.1005L20.0449 19.1163L2.98728 53.3807Z" fill="url(#paint0_linear_1414_5436)"/>
<path d="M49.3182 55.6719H38.8637C38.2866 55.6719 37.8183 55.1587 37.8183 54.5264C37.8183 53.894 38.2866 53.3808 38.8637 53.3808H47.5493L37.8789 34.1134L33.8936 43.1492C33.6427 43.7173 33.0217 43.9579 32.4969 43.6807C31.9763 43.4058 31.7588 42.7208 32.0118 42.1503L36.8794 31.1168C37.0509 30.7319 37.4022 30.4822 37.7932 30.4707C38.1863 30.4913 38.548 30.6883 38.7362 31.0641L50.2362 53.9742C50.4139 54.3293 50.4097 54.76 50.2194 55.1083C50.0292 55.4588 49.6883 55.6719 49.3182 55.6719Z" fill="url(#paint1_linear_1414_5436)"/>
<path d="M20.0455 17.8701C19.4684 17.8701 19 17.3569 19 16.7246V1.83301C19 1.20069 19.4684 0.6875 20.0455 0.6875H32.5909C33.0133 0.6875 33.3959 0.967004 33.5569 1.39542C33.72 1.82384 33.6301 2.31641 33.3311 2.64403L29.8874 6.41504L33.329 10.1861C33.628 10.5137 33.7179 11.0062 33.5548 11.4347C33.3959 11.8631 33.0133 12.1426 32.5909 12.1426H21.0909V16.7246C21.0909 17.3569 20.6225 17.8701 20.0455 17.8701ZM21.0909 9.85156H30.0672L27.671 7.22606C27.2633 6.77931 27.2633 6.05306 27.671 5.60631L30.0672 2.97852H21.0909V9.85156Z" fill="url(#paint2_linear_1414_5436)"/>
<path d="M23.1809 35.0529C23.1558 35.0529 23.1328 35.0529 23.1056 35.0506C22.8025 35.0277 22.5265 34.8605 22.3446 34.5947L20.0445 31.2361L17.7445 34.5947C17.5626 34.8605 17.2845 35.0254 16.9835 35.0506C16.6677 35.0781 16.3834 34.9544 16.1701 34.7184L12.6574 30.8695C12.2496 30.4228 12.2496 29.6965 12.6574 29.2498C13.0651 28.803 13.7279 28.803 14.1356 29.2498L16.7953 32.164L19.2082 28.6381C19.6013 28.0607 20.4857 28.0607 20.8809 28.6381L23.2938 32.164L25.9535 29.2498C26.3612 28.803 27.024 28.803 27.4317 29.2498C27.8395 29.6965 27.8395 30.4228 27.4317 30.8695L23.919 34.7184C23.7225 34.9338 23.4569 35.0529 23.1809 35.0529Z" fill="url(#paint3_linear_1414_5436)"/>
</g>
<defs>
<linearGradient id="paint0_linear_1414_5436" x1="20.0449" y1="15.623" x2="20.0449" y2="55.6717" gradientUnits="userSpaceOnUse">
<stop stop-color="#53CFFF"/>
<stop offset="1" stop-color="#32B2E4"/>
</linearGradient>
<linearGradient id="paint1_linear_1414_5436" x1="41.1361" y1="30.4707" x2="41.1361" y2="55.6719" gradientUnits="userSpaceOnUse">
<stop stop-color="#53CFFF"/>
<stop offset="1" stop-color="#32B2E4"/>
</linearGradient>
<linearGradient id="paint2_linear_1414_5436" x1="26.3186" y1="0.6875" x2="26.3186" y2="17.8701" gradientUnits="userSpaceOnUse">
<stop stop-color="#53CFFF"/>
<stop offset="1" stop-color="#32B2E4"/>
</linearGradient>
<linearGradient id="paint3_linear_1414_5436" x1="20.0445" y1="28.2051" x2="20.0445" y2="35.0544" gradientUnits="userSpaceOnUse">
<stop stop-color="#53CFFF"/>
<stop offset="1" stop-color="#32B2E4"/>
</linearGradient>
<clipPath id="clip0_1414_5436">
<rect width="50.1818" height="54.9844" fill="white" transform="translate(0.181641 0.6875)"/>
</clipPath>
</defs>
</svg>
