<svg width="112" height="43" viewBox="0 0 112 43" fill="none" xmlns="http://www.w3.org/2000/svg">
<path d="M92.3855 0.0406227C86.7347 0.516426 81.488 2.68907 77.2815 6.28339L76.7411 6.74773L76.2968 6.48403C73.9385 5.10248 70.0956 4.36871 65.7477 4.46617C57.4862 4.66107 48.3965 7.17767 38.4281 12.0332C31.3735 15.467 25.3289 19.2849 16.4564 25.9232L15.0626 26.9608L14.4617 27.1213C11.457 27.9066 7.84136 29.506 5.2003 31.2086C4.36203 31.7475 2.98848 32.7908 2.34715 33.3755C1.69573 33.9717 0.907954 34.8545 0.554467 35.3876C0.17068 35.9609 0.0292849 36.3335 0.00908565 36.815C-0.0111136 37.2221 -0.0111136 37.2278 0.155531 37.3654C0.478719 37.6405 1.16045 37.7208 1.81692 37.5603C2.54915 37.3768 3.9429 36.6316 5.3922 35.6399C6.66475 34.7743 8.0686 33.708 12.2448 30.4462C12.8558 29.9704 13.9415 29.1334 14.6637 28.5831C16.1231 27.471 15.9413 27.557 17.3956 27.2933C18.7591 27.041 19.6428 26.9608 21.0062 26.955C22.4909 26.9493 23.1777 26.9894 24.1472 27.1499C25.7581 27.4194 27.0105 27.9697 27.7124 28.7149C27.9599 28.9844 28.278 29.4602 28.278 29.5691C28.278 29.592 28.182 29.6665 28.0659 29.7353C27.5761 30.0162 25.9197 31.1111 25.0562 31.7188C21.1274 34.4991 18.8702 36.8609 18.2995 38.7871C18.2288 39.0164 18.2036 39.2743 18.2036 39.7329C18.2036 40.3119 18.2137 40.3864 18.3399 40.6501C18.7843 41.5788 19.764 42.1807 21.5415 42.6164C22.8696 42.9489 23.4453 43.0005 25.6268 43.0005C27.7074 42.9948 28.4345 42.9489 30.6262 42.6508C35.277 42.0317 40.1501 40.6903 46.3059 38.3342C55.7541 34.7227 64.0358 30.2513 69.3583 25.9002L69.8582 25.4875L70.0451 26.1353C70.7016 28.434 71.9287 30.3602 73.8274 32.0799C76.4432 34.4418 80.17 36.0354 84.1038 36.4711C85.0633 36.58 87.1993 36.5915 88.2699 36.494C92.643 36.1157 96.9505 34.4876 100.314 31.9481C101.278 31.2201 101.768 30.7787 102.606 29.8729C103.581 28.8238 104.414 27.1614 104.505 26.0837C104.535 25.7397 104.525 25.6709 104.439 25.5391C104.263 25.2869 103.647 25.1665 103.344 25.327C103.177 25.413 103.182 25.6652 103.354 25.7168L103.465 25.7455L103.354 26.0321C103 26.978 102.081 28.3538 101.112 29.3971C99.4856 31.157 96.8394 32.8768 94.0267 34.0118C92.1229 34.78 89.8101 35.3418 87.7952 35.5252C86.8509 35.6112 84.4825 35.5596 83.6847 35.4392C81.2001 35.0609 79.1146 34.2985 77.2057 33.0602C74.0799 31.0424 72.2064 28.285 71.5853 24.8053C71.5146 24.4098 71.4641 24.0887 71.4691 24.083C71.5247 24.0544 72.6407 22.9594 73.2063 22.3804C75.3474 20.1791 77.2916 17.4504 78.2712 15.2663C78.5641 14.6128 78.6146 14.5383 78.751 14.5096C79.0085 14.458 81.9778 14.0911 84.0785 13.8561C90.0676 13.1682 94.1226 12.83 97.7636 12.7039C99.1321 12.658 103.864 12.6752 104.455 12.7325C104.621 12.744 105.01 12.7727 105.313 12.7899C106.065 12.83 107.373 12.9905 107.429 13.0536C107.555 13.1854 107.166 14.6071 106.828 15.2549C106.368 16.1434 105.505 17.2555 104.98 17.6453C104.768 17.8001 104.732 17.8517 104.732 18.0065C104.732 18.2071 104.818 18.2817 105.136 18.3562C105.454 18.4364 105.813 18.3848 106.616 18.1498C108.484 17.6052 109.722 17.0148 110.686 16.2007C110.913 16.0116 111.13 15.8568 111.176 15.8568C111.464 15.8568 111.873 15.3523 111.959 14.8937C112.075 14.2517 111.943 13.8733 111.555 13.73C111.454 13.6899 111.125 13.5122 110.817 13.3287C110.514 13.1453 110.025 12.9045 109.732 12.7899L109.201 12.5835L109.196 11.6261C109.196 10.7949 109.176 10.5886 109.065 10.0669C108.469 7.33818 106.682 4.7356 104.177 2.93557C103.606 2.52856 102.42 1.86358 101.627 1.50816C100.066 0.808788 98.4402 0.350182 96.7031 0.115147C95.8951 0.0062294 93.2894 -0.0396309 92.3855 0.0406227ZM96.5769 1.09542C97.602 1.233 98.2887 1.38778 99.1068 1.66294C102.611 2.84958 105.091 4.98783 106.596 8.12354C107.04 9.05795 107.424 10.365 107.484 11.1733C107.5 11.3682 107.52 11.6777 107.535 11.8669L107.56 12.2051L107.272 12.165C103.98 11.7236 97.6575 11.758 91.6533 12.2453C88.8607 12.4746 84.6492 12.9217 80.8568 13.3975C79.8215 13.5294 78.958 13.6211 78.9429 13.6039C78.9277 13.5867 78.953 13.4491 78.9984 13.2943C79.1045 12.9217 79.2206 12.1535 79.256 11.5574C79.3418 10.2905 78.9328 8.98343 78.1753 8.08915L77.9531 7.82545L78.145 7.64201C81.0284 4.90757 84.6492 2.87825 88.5729 1.78906C89.8808 1.42791 91.4513 1.14701 92.8905 1.00943C93.6631 0.940636 95.7891 0.986496 96.5769 1.09542ZM67.6666 5.25726C70.1562 5.30885 72.8073 5.79039 74.3728 6.4783C74.8727 6.69614 75.716 7.16047 75.8978 7.31525L76.014 7.4127L75.7918 7.63628C73.484 9.9637 72.1963 11.7523 71.1106 14.137C70.9288 14.5326 70.7773 14.8593 70.7723 14.8708C70.7672 14.8765 69.8229 15.06 68.6715 15.2778C65.4043 15.8969 61.3493 16.7625 59.2688 17.2842C58.7284 17.416 58.7335 17.4046 59.4606 16.7797C60.1474 16.1893 60.4959 15.7995 60.4959 15.6217C60.4959 15.4096 60.4403 15.358 60.1828 15.3179C59.804 15.2549 59.4606 15.5071 58.38 16.6536C57.2236 17.8861 57.4306 17.7428 56.4712 17.9893C52.9514 18.9008 47.7047 20.5346 45.3514 21.446C45.1444 21.5263 44.9677 21.5779 44.9576 21.5664C44.9071 21.5091 46.9573 18.6829 48.0733 17.2613C48.9065 16.2007 50.9214 13.8504 50.9971 13.8504C51.0981 13.8504 51.1183 13.6039 51.0224 13.5236C50.6891 13.2427 50.1033 13.7185 47.9925 15.9772C46.0483 18.0581 44.7758 19.5715 43.3568 21.4919L42.6296 22.4779L41.3368 23.011C38.4837 24.1919 35.3174 25.6881 32.5047 27.1843C32.0098 27.448 31.5957 27.6659 31.5806 27.6659C31.5654 27.6659 31.7674 27.3104 32.03 26.8748C34.3832 22.9709 38.211 17.7485 41.3823 14.1141C42.6043 12.7211 43.6295 11.4026 43.6295 11.2421C43.6295 11.1962 43.5739 11.1446 43.5032 11.1217C43.4022 11.093 43.3164 11.1389 43.1093 11.3109C42.771 11.6032 41.2005 13.1682 40.6753 13.7357C40.4531 13.9765 40.1249 14.3262 39.9431 14.5154C36.9839 17.588 34.7771 20.2651 32.4138 23.6531C31.2523 25.3155 30.2373 26.955 29.5707 28.2506L29.2274 28.9156L28.9193 28.5601C28.278 27.8206 27.4852 27.3506 26.1167 26.892C24.728 26.4276 23.7332 26.2843 21.6577 26.2499C20.1175 26.2213 18.8146 26.2901 17.739 26.462C17.5774 26.485 17.4411 26.5022 17.436 26.4964C17.4158 26.4792 20.7083 24.0773 22.6727 22.6843C25.1572 20.9244 26.8287 19.8065 29.0607 18.3963C38.6099 12.3656 48.6086 8.08342 57.3902 6.26046C60.4908 5.61268 64.263 5.18847 66.5051 5.23433C66.7677 5.23433 67.2929 5.2458 67.6666 5.25726ZM77.3522 8.87451C77.5744 9.24139 77.741 9.64841 77.8773 10.1242C78.0389 10.7261 78.044 11.7179 77.8773 12.4115C77.741 12.9676 77.4784 13.7759 77.4128 13.8217C77.3875 13.8389 76.9381 13.9192 76.418 13.9937C75.8978 14.0682 74.9384 14.2115 74.292 14.309C73.6456 14.4122 73.1002 14.481 73.0901 14.4638C73.0548 14.4294 73.5648 13.4376 73.9435 12.7899C74.3021 12.1822 74.7768 11.4714 75.2312 10.8694C75.5999 10.3764 77.1098 8.63374 77.1704 8.63374C77.1906 8.63374 77.2714 8.74266 77.3522 8.87451ZM109.575 13.644C110.464 14.0338 110.762 14.2861 110.822 14.6988C110.858 14.9625 110.833 14.9912 110.115 15.4956C109.333 16.0402 108.772 16.3498 107.848 16.7453L107.51 16.8886L107.868 16.3842C108.292 15.7937 108.732 14.8192 108.949 14.0052C109.03 13.7013 109.105 13.4491 109.116 13.4491C109.121 13.4491 109.328 13.5351 109.575 13.644ZM76.8522 15.0943C75.8827 17.0492 73.9587 19.6403 71.863 21.8186L71.3378 22.3632L71.3681 21.4174C71.4136 20.1103 71.5752 19.0097 71.9186 17.6396C72.0852 16.9861 72.5245 15.6561 72.6255 15.4956C72.676 15.4211 73.0447 15.3466 74.4081 15.1402C75.3524 14.9969 76.2513 14.8536 76.4028 14.8306C76.5543 14.802 76.7563 14.7791 76.8472 14.7733L77.0138 14.7676L76.8522 15.0943ZM70.4188 15.8969C70.2824 16.2523 69.9289 17.6625 69.8229 18.2645C69.5451 19.8008 69.4441 21.7671 69.5502 23.3779L69.5906 23.9913L68.717 24.7308C63.4904 29.1563 55.9409 33.3354 46.1796 37.1991C39.8219 39.7157 34.3883 41.2578 29.5909 41.9056C27.7882 42.1463 27.061 42.1979 25.2733 42.1979C23.4251 42.1979 22.7686 42.1349 21.6577 41.854C19.7842 41.3839 18.9459 40.3578 19.355 39.0278C19.8801 37.308 22.0465 35.0265 25.5511 32.5042C26.45 31.8564 28.4396 30.5264 28.4648 30.5551C28.4749 30.5608 28.3689 30.8933 28.2325 31.2831C27.8185 32.4468 27.5862 33.4844 27.5357 34.373C27.5104 34.8144 27.5205 34.8717 27.6114 34.9634C27.7579 35.1125 28.4295 35.1698 28.5961 35.0437C28.9345 34.7915 29.5505 32.9169 29.6919 31.6844C29.7525 31.157 29.7727 31.0997 30.3383 29.9417L30.7272 29.1449L31.9997 28.434C34.6761 26.9436 37.7666 25.4244 40.5743 24.2321C41.1045 24.0028 41.5843 23.7964 41.6499 23.7677C41.7964 23.6989 41.8418 23.6129 41.0692 24.8168C38.8018 28.3423 37.6101 30.985 37.4232 32.8825C37.3323 33.8112 37.4535 33.9946 38.1655 34.0004C38.5847 34.0004 38.615 33.9889 38.8574 33.8054C38.9988 33.6965 39.5088 33.1462 39.9936 32.5787C41.5439 30.7729 42.9326 29.2022 43.5133 28.5945L44.0789 28.0041L44.0486 28.3996C44.0233 28.778 44.0233 28.8067 44.1445 28.8926C44.3213 29.0245 44.7354 29.0703 44.9576 28.9901C45.3464 28.841 46.0332 27.7232 46.1847 27.0066C46.2301 26.7831 46.2907 26.5423 46.3261 26.4678C46.3917 26.3073 46.3917 26.3015 48.1793 25.1722C50.5427 23.6703 53.0878 21.8932 54.835 20.5231C55.1784 20.2537 55.441 20.0588 55.4208 20.0989C55.4006 20.1333 55.0976 20.5575 54.7441 21.039C52.5979 23.9626 50.5679 27.2818 49.361 29.8442C48.5429 31.5869 46.9876 35.5539 46.8916 36.1501C46.8563 36.3794 46.927 36.4596 47.235 36.5227C47.4875 36.58 47.6188 36.4654 47.7653 36.0583C48.2904 34.5851 50.5275 30.1366 52.1283 27.3735C52.5424 26.6569 52.8908 26.2499 53.7291 25.4932C54.2694 25.0002 55.032 24.3926 55.4056 24.1461L55.643 23.9913L55.3854 24.4958C55.0168 25.2123 54.835 25.6996 54.7946 26.0436C54.7441 26.4334 54.8401 26.548 55.2541 26.6053C55.4965 26.6397 55.5824 26.6225 55.8096 26.5079C56.0571 26.376 62.4148 22.0594 62.738 21.8015C62.9147 21.6581 62.9097 21.6696 62.44 22.4206C61.7583 23.504 61.4503 24.1575 61.4149 24.576C61.3947 24.8111 61.4099 24.8569 61.5159 24.9372C61.6523 25.0346 62.0714 25.1091 62.2178 25.0576C62.2683 25.0346 62.3138 24.9716 62.3138 24.9085C62.3138 24.7193 62.839 23.8766 64.0055 22.1913C65.9648 19.3651 66.0355 19.2447 65.9093 19.0326C65.879 18.9753 65.5457 18.9237 65.3588 18.9466C65.278 18.9524 64.3388 19.8753 64.0307 20.2422C63.652 20.6893 62.4956 21.532 59.8899 23.2346C57.6579 24.6964 55.7995 25.8372 55.7995 25.7397C55.7995 25.7225 56.0066 25.3155 56.2591 24.8454C56.8044 23.8193 56.9054 23.5785 56.9105 23.3034C56.9105 22.9996 56.7792 22.8906 56.3904 22.8849C56.1025 22.8792 56.0419 22.9021 55.648 23.1601C55.1178 23.5155 54.3805 24.0658 54.0977 24.3238C53.9765 24.4327 53.8806 24.5015 53.8806 24.4843C53.8806 24.2779 57.7033 18.6543 57.9659 18.4708C58.0921 18.3791 62.0462 17.4619 64.6872 16.9116C66.4445 16.5447 70.1764 15.8167 70.3632 15.8052C70.4339 15.7995 70.444 15.8224 70.4188 15.8969ZM55.7692 19.1931C52.6888 21.6467 50.7194 23.0397 47.9319 24.7308L46.6492 25.5047L46.5079 25.413C46.4321 25.3614 46.2655 25.3155 46.1443 25.3155C45.9372 25.3155 45.8968 25.3442 45.5686 25.7111C45.2605 26.0607 44.392 26.955 43.0487 28.3251C42.4225 28.9614 41.4479 29.9646 41.0288 30.4118C40.8369 30.6181 40.3673 31.1111 39.9936 31.5067C39.6199 31.9022 39.1553 32.3952 38.9584 32.6073C38.7665 32.8194 38.5998 32.9685 38.5897 32.9456C38.5342 32.7621 39.4331 30.7041 40.2208 29.2137C41.0338 27.6716 43.3063 23.9053 43.993 22.9537C44.1243 22.776 44.4122 22.6499 46.3412 21.9562C47.7097 21.4632 49.8155 20.7639 51.2294 20.3282C52.2394 20.0186 55.8702 18.981 56.0217 18.9581C56.047 18.9581 55.9359 19.0613 55.7692 19.1931ZM13.0275 28.4914C13.0275 28.5086 12.5427 28.8926 11.957 29.3512C11.3661 29.8041 10.437 30.5264 9.89664 30.9564C5.1599 34.6825 2.92788 36.2303 1.49373 36.7807C1.09985 36.9297 1.05945 36.9354 1.05945 36.8437C1.05945 36.5513 1.81187 35.508 2.56935 34.7513C4.97811 32.3379 8.57864 30.1423 12.6235 28.6175C12.8306 28.5372 13.0073 28.4742 13.0174 28.4742C13.0225 28.4684 13.0275 28.4799 13.0275 28.4914Z" fill="#7B8990"/>
</svg>
