<svg width="22" height="21" viewBox="0 0 22 21" fill="none" xmlns="http://www.w3.org/2000/svg">
<path d="M18.3518 0.0570068C18.509 0.135593 18.4428 0.00737381 19.9732 3.12185L21.1768 5.57454V12.792V20.0095L21.0568 20.1418L20.9369 20.2783H10.5884H0.239904L0.119959 20.1418L1.14441e-05 20.0095V12.7961V5.58282L1.30701 2.91918C2.09701 1.3061 2.65951 0.210043 2.73396 0.135593L2.85391 0.0115108L10.5388 0.00323868C17.446 -0.00503349 18.2319 -0.000898361 18.3518 0.0570068ZM13.0824 1.07448C13.0949 1.12825 13.2686 2.08782 13.4671 3.20457L13.8311 5.24366H16.867C18.6413 5.24366 19.8946 5.22711 19.8863 5.20643C19.878 5.18575 19.4107 4.22618 18.844 3.07635L17.81 0.98349H15.4359H13.0618L13.0824 1.07448ZM8.7561 3.01844C8.55343 4.13932 8.37972 5.09889 8.36731 5.14853L8.34663 5.24366H10.5884H12.8301L12.8095 5.14853C12.7971 5.09889 12.6233 4.13932 12.4248 3.01844L12.0608 0.98349H10.5925H9.12008L8.7561 3.01844ZM2.3369 3.07635C1.76612 4.23032 1.29461 5.18575 1.29047 5.20643C1.2822 5.22711 2.58506 5.24366 4.30981 5.24366H7.3457L7.70967 3.22525C7.9082 2.11678 8.08192 1.16134 8.09433 1.09517L8.11501 0.98349H5.74503H3.37092L2.3369 3.07635ZM13.8973 9.29702C13.8973 12.5976 13.9014 12.5273 13.6822 12.6348C13.3596 12.7961 13.2024 12.7382 12.8053 12.304L12.4951 11.9648L12.1477 12.3081C11.7754 12.6803 11.6017 12.7672 11.3908 12.6886C11.3246 12.6638 11.1178 12.4901 10.9275 12.304L10.5884 11.9648L10.2451 12.304C10.059 12.4901 9.85216 12.6638 9.78598 12.6886C9.57504 12.7672 9.40133 12.6803 9.03322 12.3122L8.69406 11.9772L8.37558 12.3122C7.93302 12.7755 7.66417 12.8375 7.4036 12.5356L7.27952 12.3949V9.3177V6.23632H4.11542H0.951311V12.7713V19.3063H10.5884H20.2255V12.7713V6.23632H17.0614H13.8973V9.29702ZM8.27218 8.59388V10.9556L8.4004 10.8605C8.48725 10.7943 8.58652 10.7653 8.7106 10.7653C8.88432 10.7653 8.90913 10.7819 9.26484 11.1376L9.63709 11.5098L9.98038 11.1665C10.3526 10.7943 10.5263 10.7074 10.7373 10.786C10.8035 10.8108 11.0103 10.9845 11.1964 11.1707L11.5397 11.5057L11.8995 11.15C12.3669 10.695 12.5572 10.6454 12.8301 10.9018L12.946 11.0094V8.62284V6.23632H10.6091H8.27218V8.59388Z" fill="#27A9DC"/>
</svg>
