<svg width="22" height="23" viewBox="0 0 22 23" fill="none" xmlns="http://www.w3.org/2000/svg">
<path d="M12.0441 0.107877C11.9754 0.166275 11.8078 0.431314 11.666 0.691859L11.4125 1.16803L11.1332 1.00182C10.6648 0.727797 10.6434 0.718813 10.4156 0.718813C10.0246 0.718813 10.0289 0.709828 8.73555 3.02779C7.63555 5.00435 7.5625 5.1481 7.5625 5.35474C7.5625 5.58833 7.63125 5.76802 7.76016 5.8938C7.80742 5.93423 10.3168 7.44809 13.3418 9.25844C18.5711 12.385 18.8547 12.5467 19.091 12.5692C19.5336 12.6051 19.5035 12.6455 20.8313 10.2647C21.9527 8.2477 22 8.14887 22 7.92876C22 7.75805 21.9742 7.65024 21.9012 7.54243C21.8195 7.41216 21.7078 7.3268 21.2695 7.05278C21.2137 7.01684 21.2395 6.94946 21.4113 6.61255C21.6305 6.17681 21.6648 5.94321 21.5531 5.70962C21.5102 5.62427 21.1965 5.40415 20.4703 4.95044C19.5422 4.37095 19.4305 4.31255 19.2457 4.31255C18.9707 4.31255 18.8332 4.44283 18.5754 4.93697L18.3734 5.32779L18.0426 5.13462L17.7117 4.93697L17.9438 4.50123C18.193 4.02955 18.2359 3.80045 18.1156 3.55338C18.0727 3.46803 17.759 3.24791 17.0328 2.7942C16.1047 2.21471 15.993 2.15631 15.8082 2.15631C15.5289 2.15631 15.3957 2.28209 15.1207 2.81217C15.0004 3.05025 14.8801 3.22994 14.85 3.22095C14.8242 3.20748 14.6738 3.12213 14.5191 3.02779L14.2355 2.8526L14.4848 2.38092C14.6824 2.01256 14.7383 1.86881 14.7383 1.71608C14.7383 1.36569 14.691 1.32076 13.5953 0.637954C12.6672 0.0584631 12.5555 6.48499e-05 12.3707 6.48499e-05C12.2203 6.48499e-05 12.1344 0.0270176 12.0441 0.107877ZM13.2473 1.32526L13.9605 1.76998L13.7844 2.11139C13.6855 2.29557 13.6039 2.45279 13.5996 2.46178C13.591 2.47525 12.1559 1.62623 12.1043 1.57233C12.0527 1.52291 12.4137 0.844594 12.4824 0.862562C12.5082 0.871547 12.8563 1.07819 13.2473 1.32526ZM15.9328 4.76177C18.8418 6.50474 21.2266 7.94223 21.2266 7.96469C21.2266 7.98715 20.7496 8.86313 20.1652 9.90981C19.1512 11.7381 19.1039 11.8145 19.018 11.7561C18.9664 11.7246 16.543 10.2737 13.634 8.5352C10.7207 6.79224 8.33594 5.35474 8.33594 5.33228C8.33594 5.30982 8.81289 4.43384 9.39727 3.38717C10.4113 1.55885 10.4586 1.48248 10.5445 1.54088C10.5961 1.57233 13.0195 3.0233 15.9328 4.76177ZM16.6848 3.4815L17.398 3.92623L17.2434 4.22271C17.1574 4.38443 17.0844 4.52369 17.0758 4.53267C17.0586 4.55064 15.602 3.68365 15.5762 3.63424C15.5418 3.58033 15.8598 3.00533 15.9199 3.01881C15.9457 3.02779 16.2937 3.23443 16.6848 3.4815ZM20.1223 5.63775L20.8355 6.08247L20.698 6.34302C20.6207 6.48677 20.5391 6.59907 20.5133 6.59458C20.4359 6.57212 19.0352 5.72759 19.0352 5.70064C19.0352 5.61978 19.3102 5.16158 19.3531 5.17505C19.3832 5.18404 19.7312 5.39068 20.1223 5.63775Z" fill="#27A9DC"/>
<path d="M1.86914 9.14162L1.71875 9.30334V9.86037V10.4219H1.08711C0.373828 10.4219 0.253516 10.4623 0.0859375 10.7453C0.00429688 10.8891 0 10.9789 0 13.4766C0 15.9742 0.00429688 16.0641 0.0859375 16.2078C0.133203 16.2887 0.232031 16.392 0.309375 16.4414C0.451172 16.5312 0.541406 16.5312 7.04688 16.5312C13.5523 16.5312 13.6426 16.5312 13.7844 16.4414C13.8617 16.392 13.9605 16.2887 14.0078 16.2078C14.0895 16.0641 14.0938 15.9742 14.0938 13.4766C14.0938 10.9789 14.0895 10.8891 14.0078 10.7453C13.8531 10.4803 13.7027 10.4219 13.1828 10.4219H12.7188V9.86037V9.30334L12.5684 9.14162L12.4137 8.98439H11.1719H9.93008L9.77539 9.14162L9.625 9.30334V9.86037V10.4219H9.10938H8.59375V9.86037V9.30334L8.44336 9.14162L8.28867 8.98439H7.04688H5.80508L5.65039 9.14162L5.5 9.30334V9.86037V10.4219H5.15625H4.8125V9.86037V9.30334L4.66211 9.14162L4.50742 8.98439H3.26562H2.02383L1.86914 9.14162ZM4.125 10.0625V10.4219H3.26562H2.40625V10.0625V9.70314H3.26562H4.125V10.0625ZM7.90625 10.0625V10.4219H7.04688H6.1875V10.0625V9.70314H7.04688H7.90625V10.0625ZM12.0312 10.0625V10.4219H11.1719H10.3125V10.0625V9.70314H11.1719H12.0312V10.0625ZM13.4062 13.4766V15.8125H7.04688H0.6875V13.4766V11.1406H7.04688H13.4062V13.4766Z" fill="#27A9DC"/>
<path d="M17.6816 15.6104L17.5312 15.7721V16.3291V16.8906H12.9465C8.44336 16.8906 8.35313 16.8906 8.21563 16.9805C8.13828 17.0299 8.03945 17.1332 7.99219 17.2141C7.91055 17.3578 7.90625 17.4477 7.90625 19.9453C7.90625 22.443 7.91055 22.5328 7.99219 22.6766C8.03945 22.7574 8.13828 22.8607 8.21563 22.9102C8.35742 23 8.44766 23 14.9531 23C21.4586 23 21.5488 23 21.6906 22.9102C21.768 22.8607 21.8668 22.7574 21.9141 22.6766C21.9957 22.5328 22 22.443 22 19.9453C22 17.4477 21.9957 17.3578 21.9141 17.2141C21.7594 16.949 21.609 16.8906 21.0891 16.8906H20.625V16.3291V15.7721L20.4746 15.6104L20.3199 15.4531H19.0781H17.8363L17.6816 15.6104ZM19.9375 16.5313V16.8906H19.0781H18.2188V16.5313V16.1719H19.0781H19.9375V16.5313ZM21.3125 19.9453V22.2813H14.9531H8.59375V19.9453V17.6094H14.9531H21.3125V19.9453Z" fill="#27A9DC"/>
<path d="M0.365234 16.9311C0.317969 16.9535 0.223438 17.0344 0.150391 17.1152L0.0214844 17.2545V19.9453V22.6406L0.184766 22.8068L0.34375 22.9775H3.60938H6.875L7.03398 22.8068L7.19727 22.6406V19.9453V17.25L7.03398 17.0838L6.875 16.9131L3.66094 16.9041C1.89492 16.8996 0.4125 16.9131 0.365234 16.9311ZM6.53125 19.9453V22.2813H3.60938H0.6875V19.9453V17.6094H3.60938H6.53125V19.9453Z" fill="#27A9DC"/>
</svg>
