<svg width="28" height="28" viewBox="0 0 28 28" fill="none" xmlns="http://www.w3.org/2000/svg">
<path d="M12.1065 0.0699844C11.5277 0.252203 10.9864 0.654152 10.6916 1.1097C10.4344 1.51701 10.3111 1.94039 10.2736 2.55136L10.2414 3.09801L10.0485 3.16232C9.94131 3.19448 9.57152 3.33918 9.22316 3.48924L8.59612 3.75721L8.22633 3.41421C7.35275 2.60495 6.24873 2.41737 5.24653 2.91043C4.92497 3.07121 4.73204 3.23735 3.94957 4.02518C3.17783 4.80228 3.00097 5.01129 2.86699 5.3007C2.39537 6.30289 2.5883 7.39084 3.38684 8.25369L3.72984 8.62885L3.54227 9.04151C3.44044 9.26661 3.29038 9.6364 3.20999 9.86149L3.06528 10.2688L2.52399 10.301C1.37709 10.3653 0.632146 10.8476 0.171243 11.8176L-0.00561523 12.1874V13.7149V15.2423L0.171243 15.6121C0.632146 16.5821 1.37709 17.0644 2.52399 17.1288L3.06528 17.1609L3.20999 17.5682C3.29038 17.7933 3.44044 18.1631 3.54227 18.3882L3.72984 18.8009L3.38684 19.176C2.78124 19.8299 2.52399 20.5855 2.6419 21.368C2.75444 22.1129 2.90986 22.3595 3.94957 23.4045C4.98929 24.4496 5.28941 24.6479 6.0022 24.7551C6.83826 24.8837 7.59392 24.6211 8.28528 23.9619L8.59076 23.6725L9.22316 23.9405C9.57152 24.0905 9.94131 24.2352 10.0485 24.2674L10.2414 24.3317L10.2736 24.8784C10.3379 26.0253 10.8149 26.7702 11.7903 27.2311L12.1601 27.408H13.6875H15.2149L15.5847 27.2311C16.5547 26.7756 17.0371 26.0253 17.1014 24.8837L17.1335 24.3424L17.5409 24.1924C17.7659 24.112 18.1357 23.9619 18.3662 23.8547L18.7789 23.6671L19.0897 23.9619C19.7811 24.6211 20.5421 24.8837 21.3835 24.7551C22.0856 24.6479 22.3911 24.4442 23.4254 23.4045C24.1971 22.6274 24.374 22.4184 24.508 22.129C24.9743 21.1268 24.7867 20.0335 23.9881 19.176L23.6451 18.8062L23.9131 18.1792C24.0632 17.8308 24.2132 17.461 24.2507 17.3538L24.3151 17.1609L24.8563 17.1288C25.9979 17.0644 26.7482 16.5821 27.2037 15.6121L27.3806 15.2423V13.7149V12.1874L27.2037 11.8176C26.7482 10.8476 25.9979 10.3653 24.8563 10.301L24.3151 10.2688L24.2507 10.0759C24.2132 9.96868 24.0632 9.59888 23.9131 9.25053L23.6451 8.62349L23.9881 8.25369C24.7974 7.38012 24.985 6.2761 24.4919 5.2739C24.3311 4.95234 24.165 4.7594 23.3772 3.97694C22.6001 3.2052 22.3911 3.02834 22.1016 2.89436C21.0995 2.42273 20.0115 2.61567 19.1487 3.41421L18.7735 3.75721L18.3608 3.57499C18.1357 3.4678 17.7606 3.31774 17.5355 3.23199L17.1175 3.07657V2.75501C17.1175 1.73138 16.7262 0.922119 15.992 0.418341C15.4346 0.0378284 15.2095 -0.00504684 13.6714 0.000312805C12.7389 0.000312805 12.2565 0.0217514 12.1065 0.0699844ZM14.9362 1.73138C15.0541 1.79033 15.2095 1.92967 15.2846 2.04758C15.4239 2.25659 15.4293 2.30483 15.4561 3.1516C15.4936 4.36281 15.4614 4.31994 16.6083 4.68437C16.962 4.79692 17.5784 5.05953 17.975 5.25782C18.661 5.60618 18.7145 5.62762 19.004 5.60618L19.3094 5.5901L19.9258 4.98985C20.6171 4.31994 20.794 4.22883 21.2066 4.33602C21.3942 4.38961 21.5657 4.53431 22.2196 5.18279C22.868 5.83663 23.0127 6.00813 23.0663 6.19571C23.1735 6.60838 23.0824 6.78523 22.4125 7.47659L21.8122 8.09291L21.7962 8.39839C21.7747 8.6878 21.7962 8.74139 22.1445 9.42739C22.3428 9.82398 22.6054 10.4403 22.718 10.794C23.0824 11.9409 23.0395 11.9088 24.2507 11.9463C25.0975 11.9731 25.1458 11.9784 25.3548 12.1178C25.7353 12.3697 25.7728 12.5197 25.7728 13.7149C25.7728 14.91 25.7353 15.06 25.3548 15.3119C25.1458 15.4513 25.0975 15.4566 24.2507 15.4834C23.0395 15.521 23.0824 15.4888 22.718 16.6357C22.6054 16.9894 22.3428 17.6057 22.1445 18.0023C21.7962 18.6883 21.7747 18.7419 21.7962 19.0313L21.8122 19.3368L22.4125 19.9531C23.0824 20.6445 23.1735 20.8213 23.0663 21.2286C23.0127 21.4216 22.868 21.5931 22.2196 22.2469C21.5657 22.8954 21.3942 23.0401 21.2066 23.0937C20.794 23.2009 20.6171 23.1098 19.9258 22.4399L19.3094 21.8396L19.004 21.8235C18.7145 21.8021 18.661 21.8235 17.975 22.1719C17.5784 22.3702 16.962 22.6328 16.6083 22.7453C15.4614 23.1098 15.4936 23.0669 15.4561 24.2781C15.4293 25.1249 15.4239 25.1731 15.2846 25.3821C15.0327 25.7626 14.8826 25.8002 13.6875 25.8002C12.4924 25.8002 12.3423 25.7626 12.0904 25.3821C11.9511 25.1731 11.9457 25.1249 11.9189 24.2781C11.8814 23.0669 11.9135 23.1098 10.7667 22.7453C10.4129 22.6328 9.79661 22.3702 9.40002 22.1719C8.71402 21.8235 8.66043 21.8021 8.37103 21.8235L8.06555 21.8396L7.44922 22.4399C6.75787 23.1098 6.58101 23.2009 6.16834 23.0937C5.98076 23.0401 5.80926 22.8954 5.15543 22.2469C4.50695 21.5931 4.36224 21.4216 4.30865 21.2286C4.20146 20.8213 4.29257 20.6445 4.96249 19.9531L5.56274 19.3368L5.57881 19.0313C5.60025 18.7419 5.57881 18.6883 5.23046 18.0023C5.03216 17.6057 4.76955 16.9894 4.65701 16.6357C4.29257 15.4888 4.33545 15.521 3.12424 15.4834C2.27746 15.4566 2.22923 15.4513 2.02021 15.3119C1.6397 15.06 1.60219 14.91 1.60219 13.7149C1.60219 12.5197 1.6397 12.3697 2.02021 12.1178C2.22923 11.9784 2.27746 11.9731 3.12424 11.9463C4.33545 11.9088 4.29257 11.9409 4.65701 10.794C4.76955 10.4403 5.03216 9.82398 5.23046 9.42739C5.57881 8.74139 5.60025 8.6878 5.57881 8.39839L5.56274 8.09291L4.96249 7.47659C4.29257 6.78523 4.20146 6.60838 4.30865 6.19571C4.36224 6.00813 4.50695 5.83663 5.15543 5.18279C6.03436 4.30386 6.18442 4.21811 6.60781 4.33602C6.78466 4.38425 6.96152 4.52359 7.44922 4.98985C8.06019 5.57938 8.06555 5.58474 8.35495 5.61154C8.63363 5.63298 8.68723 5.61154 9.41074 5.25246C9.83413 5.04345 10.4772 4.77548 10.8417 4.65758C11.2115 4.53967 11.5652 4.40569 11.6241 4.36817C11.86 4.21275 11.9189 3.97158 11.9189 3.19984C11.9189 2.35842 11.9671 2.14405 12.2137 1.89752C12.4656 1.64563 12.696 1.60811 13.7947 1.61883C14.5879 1.62955 14.7647 1.64563 14.9362 1.73138Z" fill="#27A9DC"/>
<path d="M12.8942 7.77135C12.0743 7.87854 10.9863 8.28585 10.3325 8.73603C9.86622 9.05223 9.36245 9.52386 8.99801 9.97404C8.57462 10.5046 8.06013 11.5068 7.89935 12.1339C7.63674 13.1521 7.63674 14.2883 7.89935 15.2959C8.02797 15.7728 8.43528 16.6786 8.70861 17.0698C9.76976 18.6186 11.4633 19.578 13.3391 19.6959C15.2577 19.8191 17.1496 18.9777 18.3769 17.4557C18.8002 16.9251 19.3147 15.9229 19.4755 15.2959C19.7381 14.2776 19.7381 13.1521 19.4755 12.1339C19.3147 11.5068 18.8002 10.5046 18.3769 9.97404C17.7712 9.22373 17.1335 8.72532 16.2438 8.30193C15.2041 7.80351 14.0411 7.62129 12.8942 7.77135ZM14.7325 9.51314C16.2921 9.93117 17.4336 11.062 17.8784 12.6323C18.0499 13.2218 18.0446 14.2133 17.8784 14.8082C17.4443 16.3249 16.2974 17.4718 14.7754 17.9059C14.1805 18.0774 13.1944 18.0774 12.5941 17.9059C11.0614 17.4664 9.9359 16.3409 9.49643 14.8082C9.34101 14.2561 9.33029 13.2272 9.47499 12.6966C9.96269 10.9226 11.324 9.70072 13.1247 9.40595C13.4248 9.36308 14.4056 9.42203 14.7325 9.51314Z" fill="#27A9DC"/>
</svg>
