<svg width="19" height="19" viewBox="0 0 19 19" fill="none" xmlns="http://www.w3.org/2000/svg">
<path d="M1.45661 0.44813C0.980377 0.618719 0.614321 0.988329 0.447286 1.47167C0.383315 1.66358 0.379761 1.88037 0.379761 9.47515C0.379761 17.0699 0.383315 17.2867 0.447286 17.4786C0.614321 17.9691 0.983931 18.3387 1.47082 18.5057C1.66629 18.5697 1.81555 18.5732 7.30995 18.5732C12.8043 18.5732 12.9536 18.5697 13.1491 18.5057C13.6324 18.3387 13.9878 17.9833 14.1797 17.4786C14.2544 17.2796 14.2544 17.2263 14.2686 14.7528L14.2792 12.2295L16.2801 10.2215C18.3343 8.16019 18.4054 8.07845 18.5226 7.68751C18.6008 7.42452 18.5902 6.97672 18.5049 6.71729C18.3449 6.25883 17.9469 5.86079 17.4956 5.70797C17.0584 5.56225 16.5182 5.62267 16.1273 5.85723C16.0562 5.89988 15.612 6.31925 15.1357 6.78837L14.2757 7.64131V5.60135C14.2757 4.4783 14.2579 3.437 14.2401 3.29129C14.2153 3.11714 14.162 2.93589 14.0767 2.75819C13.9629 2.51297 13.8812 2.42057 13.0389 1.58184C12.0971 0.640043 11.9798 0.551195 11.5782 0.426807C11.4432 0.387712 10.6116 0.377052 6.52808 0.380606C1.8582 0.380606 1.6343 0.384159 1.45661 0.44813ZM9.97541 2.87192C9.97541 4.28639 9.97541 4.3006 10.0536 4.41433C10.2135 4.64534 10.178 4.64178 11.7488 4.64178H13.174V6.69241V8.74659L11.9514 9.9727L10.7288 11.1988L10.3308 12.4036C10.0465 13.253 9.93276 13.651 9.93276 13.7648C9.93987 14.0597 10.1531 14.273 10.4481 14.2801C10.64 14.2836 12.9394 13.5266 13.0851 13.4129L13.1775 13.3418L13.1668 15.2183C13.1562 17.0344 13.1526 17.1019 13.0851 17.2227C13.0425 17.2903 12.9572 17.3756 12.8896 17.4182C12.7653 17.4893 12.7333 17.4893 7.30995 17.4893C1.91862 17.4893 1.85465 17.4893 1.73737 17.4182C1.6734 17.3791 1.5881 17.2974 1.54901 17.237C1.48148 17.1268 1.48148 16.974 1.48148 9.47159C1.48148 2.08294 1.48504 1.81285 1.54901 1.71689C1.63075 1.5925 1.74447 1.51076 1.88663 1.47522C1.94705 1.461 3.79155 1.45034 5.98788 1.44679L9.97541 1.44324V2.87192ZM12.2393 2.37792C12.8825 3.01763 13.1064 3.26285 13.1206 3.34459C13.1349 3.40146 13.1526 3.47964 13.1597 3.51163C13.1775 3.57205 13.11 3.5756 12.1291 3.5756H11.0771V2.51297V1.45034L11.2299 1.48233C11.3614 1.51431 11.4752 1.61382 12.2393 2.37792ZM17.2503 6.80969C17.396 6.89854 17.4742 7.05136 17.4742 7.24682C17.4742 7.43163 17.3854 7.56668 17.0406 7.90075L16.8167 8.12465L16.4507 7.75859L16.0882 7.39609L16.3796 7.10822C16.5431 6.94829 16.7066 6.80258 16.7457 6.78126C16.8629 6.71729 17.1259 6.7315 17.2503 6.80969ZM14.7555 10.1859L13.4938 11.4476L13.1313 11.0815L12.7653 10.719L14.0269 9.45738L15.2886 8.19573L15.6511 8.55823L16.0171 8.92429L14.7555 10.1859ZM12.5804 12.3609C12.4703 12.4747 12.3708 12.5209 11.9159 12.6737C11.6244 12.7697 11.3792 12.8443 11.3721 12.8407C11.3686 12.8336 11.4432 12.592 11.5391 12.3005C11.6884 11.8598 11.7382 11.7461 11.8483 11.6359L11.9798 11.5009L12.3459 11.8634L12.7119 12.2259L12.5804 12.3609Z" fill="#27A9DC"/>
<path d="M2.75738 5.76485C2.42331 5.97453 2.42686 6.51829 2.76449 6.71731C2.84978 6.76706 3.25493 6.77417 6.77689 6.77417C10.5867 6.77417 10.7004 6.77062 10.8071 6.70664C10.9634 6.60713 11.0487 6.44365 11.0487 6.24108C11.0487 6.0385 10.9634 5.87502 10.8071 5.77551C10.6969 5.71154 10.5867 5.70799 6.77334 5.70799C3.25138 5.71154 2.83912 5.71509 2.75738 5.76485Z" fill="#27A9DC"/>
<path d="M2.75738 7.89742C2.42331 8.1071 2.42686 8.65085 2.76449 8.84988C2.84978 8.89963 3.16608 8.90674 5.71071 8.90674C8.36195 8.90674 8.56808 8.90318 8.66759 8.84277C9.00166 8.6473 9.00166 8.09999 8.66759 7.90097C8.56808 7.84411 8.36195 7.84056 5.7036 7.84056C3.15898 7.84411 2.83912 7.84766 2.75738 7.89742Z" fill="#27A9DC"/>
<path d="M2.75738 10.0295C2.42331 10.2392 2.42686 10.7829 2.76449 10.982C2.84978 11.0317 3.16608 11.0388 5.71071 11.0388C8.36195 11.0388 8.56808 11.0353 8.66759 10.9748C9.00166 10.7794 9.00166 10.2321 8.66759 10.0331C8.56808 9.97619 8.36195 9.97264 5.7036 9.97264C3.15898 9.97619 2.83912 9.97974 2.75738 10.0295Z" fill="#27A9DC"/>
<path d="M2.75738 12.1621C2.42331 12.3717 2.42686 12.9155 2.76449 13.1145C2.84978 13.1643 3.16608 13.1714 5.71071 13.1714C8.36195 13.1714 8.56808 13.1678 8.66759 13.1074C9.00166 12.9119 9.00166 12.3646 8.66759 12.1656C8.56808 12.1088 8.36195 12.1052 5.7036 12.1052C3.15898 12.1088 2.83912 12.1123 2.75738 12.1621Z" fill="#27A9DC"/>
<path d="M7.02203 15.4314C6.68796 15.641 6.69151 16.1848 7.02914 16.3838C7.11443 16.4336 7.34188 16.4407 8.90917 16.4407C10.6115 16.4407 10.7004 16.4371 10.807 16.3731C11.1339 16.1706 11.1339 15.6446 10.807 15.442C10.7004 15.378 10.6115 15.3745 8.90562 15.3745C7.33122 15.3745 7.10377 15.3816 7.02203 15.4314Z" fill="#27A9DC"/>
</svg>
