<svg width="28" height="28" viewBox="0 0 28 28" fill="none" xmlns="http://www.w3.org/2000/svg">
<path d="M26.3748 26.3594H24.2107V0.820312C24.2107 0.367281 23.8434 0 23.3904 0H4.60941C4.15638 0 3.78909 0.367281 3.78909 0.820312V26.3594H1.625C1.17197 26.3594 0.804688 26.7267 0.804688 27.1797C0.804688 27.6327 1.17197 28 1.625 28H26.3749C26.8279 28 27.1952 27.6327 27.1952 27.1797C27.1952 26.7267 26.8279 26.3594 26.3748 26.3594ZM11.2037 26.3594V20.767H16.7961V26.3594H11.2037ZM18.4367 26.3594V19.9467C18.4367 19.4936 18.0694 19.1264 17.6164 19.1264H10.3834C9.93034 19.1264 9.56306 19.4936 9.56306 19.9467V26.3594H5.42972V1.64062H22.57V26.3594H18.4367Z" fill="white"/>
<path d="M12.236 3.62627H8.21606C7.76303 3.62627 7.39575 3.99355 7.39575 4.44658V8.46655C7.39575 8.91958 7.76303 9.28686 8.21606 9.28686H12.236C12.6891 9.28686 13.0563 8.91958 13.0563 8.46655V4.44658C13.0563 3.99355 12.6891 3.62627 12.236 3.62627ZM11.4157 7.64624H9.03638V5.26689H11.4157V7.64624ZM19.7836 3.62627H15.7636C15.3106 3.62627 14.9433 3.99355 14.9433 4.44658V8.46655C14.9433 8.91958 15.3106 9.28686 15.7636 9.28686H19.7836C20.2366 9.28686 20.6039 8.91958 20.6039 8.46655V4.44658C20.6039 3.99355 20.2366 3.62627 19.7836 3.62627ZM18.9633 7.64624H16.5839V5.26689H18.9633V7.64624ZM12.236 11.2631H8.21606C7.76303 11.2631 7.39575 11.6304 7.39575 12.0834V16.1034C7.39575 16.5564 7.76303 16.9237 8.21606 16.9237H12.236C12.6891 16.9237 13.0563 16.5564 13.0563 16.1034V12.0834C13.0563 11.6304 12.6891 11.2631 12.236 11.2631ZM11.4157 15.2831H9.03638V12.9037H11.4157V15.2831ZM19.7836 11.2631H15.7636C15.3106 11.2631 14.9433 11.6304 14.9433 12.0834V16.1034C14.9433 16.5564 15.3106 16.9237 15.7636 16.9237H19.7836C20.2366 16.9237 20.6039 16.5564 20.6039 16.1034V12.0834C20.6039 11.6304 20.2366 11.2631 19.7836 11.2631ZM18.9633 15.2831H16.5839V12.9037H18.9633V15.2831Z" fill="white"/>
</svg>
