<svg width="32" height="32" viewBox="0 0 32 32" fill="none" xmlns="http://www.w3.org/2000/svg">
<g clip-path="url(#clip0_12_3700)">
<path d="M30.6852 6.6742H5.66514L5.29322 2.53038C5.23239 1.85273 4.66454 1.3335 3.98429 1.3335H1.31418C0.588379 1.3335 0 1.92196 0 2.64786C0 3.37377 0.588379 3.96223 1.31418 3.96223H2.78282C3.58541 12.905 1.51112 -10.2088 4.29432 20.8042C4.40158 22.018 5.05736 23.3352 6.18706 24.2303C4.15026 26.8317 6.01127 30.6668 9.32445 30.6668C12.0744 30.6668 14.0139 27.9238 13.0709 25.3259H20.2636C19.3218 27.9205 21.2571 30.6668 24.01 30.6668C26.207 30.6668 27.9943 28.8792 27.9943 26.682C27.9943 24.4847 26.207 22.6971 24.01 22.6971H9.33334C8.33506 22.6971 7.46513 22.0948 7.08965 21.2172L28.0921 19.9827C28.6654 19.949 29.1506 19.5467 29.2899 18.9894L31.9602 8.30733C32.1672 7.47903 31.5403 6.6742 30.6852 6.6742ZM9.32445 28.0381C8.57687 28.0381 7.96859 27.4297 7.96859 26.682C7.96859 25.9342 8.57687 25.3259 9.32445 25.3259C10.0721 25.3259 10.6804 25.9342 10.6804 26.682C10.6804 27.4297 10.0721 28.0381 9.32445 28.0381ZM24.01 28.0381C23.2623 28.0381 22.654 27.4297 22.654 26.682C22.654 25.9342 23.2623 25.3259 24.01 25.3259C24.7576 25.3259 25.3659 25.9342 25.3659 26.682C25.3659 27.4297 24.7576 28.0381 24.01 28.0381ZM26.9741 17.4151L6.73588 18.6046L5.90106 9.30287H29.002L26.9741 17.4151Z" fill="rgba(39, 169, 220, 1)"/>
</g>
<defs>
<clipPath id="clip0_12_3700">
<rect width="32" height="32" fill="white"/>
</clipPath>
</defs>
</svg>
