<svg width="36" height="36" viewBox="0 0 36 36" fill="none" xmlns="http://www.w3.org/2000/svg">
<rect width="36" height="36" rx="4" fill="url(#paint0_linear_129_12315)"/>
<path d="M25.3426 13.549H12.8326L12.6466 11.5712C12.6162 11.2478 12.3323 11 11.9921 11H10.6571C10.2942 11 10 11.2809 10 11.6273C10 11.9738 10.2942 12.2546 10.6571 12.2546H11.3914C11.7927 16.5228 10.7556 5.49116 12.1472 20.2928C12.2008 20.8722 12.5287 21.5008 13.0935 21.928C12.0751 23.1696 13.0056 25 14.6622 25C16.0372 25 17.0069 23.6908 16.5354 22.4509H20.1318C19.6609 23.6892 20.6286 25 22.005 25C23.1035 25 23.9972 24.1468 23.9972 23.0981C23.9972 22.0495 23.1035 21.1963 22.005 21.1963H14.6667C14.1675 21.1963 13.7326 20.9088 13.5448 20.4899L24.046 19.9007C24.3327 19.8847 24.5753 19.6926 24.645 19.4267L25.9801 14.3284C26.0836 13.9331 25.7702 13.549 25.3426 13.549ZM14.6622 23.7454C14.2884 23.7454 13.9843 23.455 13.9843 23.0981C13.9843 22.7413 14.2884 22.4509 14.6622 22.4509C15.036 22.4509 15.3402 22.7413 15.3402 23.0981C15.3402 23.455 15.036 23.7454 14.6622 23.7454ZM22.005 23.7454C21.6312 23.7454 21.327 23.455 21.327 23.0981C21.327 22.7413 21.6312 22.4509 22.005 22.4509C22.3788 22.4509 22.6829 22.7413 22.6829 23.0981C22.6829 23.455 22.3788 23.7454 22.005 23.7454ZM23.4871 18.6753L13.3679 19.243L12.9505 14.8036H24.501L23.4871 18.6753Z" fill="white"/>
<defs>
<linearGradient id="paint0_linear_129_12315" x1="18" y1="0" x2="18" y2="36" gradientUnits="userSpaceOnUse">
<stop stop-color="#53CFFF"/>
<stop offset="1" stop-color="#32B2E4"/>
</linearGradient>
</defs>
</svg>
