<svg width="20" height="20" viewBox="0 0 20 20" fill="none" xmlns="http://www.w3.org/2000/svg">
<path fill-rule="evenodd" clip-rule="evenodd" d="M10 20C15.523 20 20 15.523 20 10C20 4.477 15.523 0 10 0C4.477 0 0 4.477 0 10C0 15.523 4.477 20 10 20ZM11 5C11 4.73478 10.8946 4.48043 10.7071 4.29289C10.5196 4.10536 10.2652 4 10 4C9.73478 4 9.48043 4.10536 9.29289 4.29289C9.10536 4.48043 9 4.73478 9 5V9.586C9.00011 10.1164 9.2109 10.625 9.586 11L12.293 13.707C12.4816 13.8892 12.7342 13.99 12.9964 13.9877C13.2586 13.9854 13.5094 13.8802 13.6948 13.6948C13.8802 13.5094 13.9854 13.2586 13.9877 12.9964C13.99 12.7342 13.8892 12.4816 13.707 12.293L11 9.586V5Z" fill="white"/>
</svg>
