<svg xmlns="http://www.w3.org/2000/svg" width="17" height="19" fill="none"><g clip-path="url(#a)"><path fill="#fff" fill-rule="evenodd" d="M15.034 8.164H13.64c.101.425.161.868.161 1.327 0 2.93-2.205 5.306-4.926 5.306-2.72 0-4.926-2.376-4.926-5.306 0-.459.06-.902.162-1.327H2.717v7.296c0 .365.276.662.616.662h11.084c.081 0 .161-.017.236-.05a.612.612 0 0 0 .2-.144.667.667 0 0 0 .133-.215.709.709 0 0 0 .048-.253V8.164Zm0-4.642a.707.707 0 0 0-.181-.469.614.614 0 0 0-.2-.143.578.578 0 0 0-.236-.05H12.57c-.163 0-.32.07-.435.193a.69.69 0 0 0-.18.47v1.99a.707.707 0 0 0 .18.468c.057.062.125.11.2.144.074.033.154.05.235.05h1.847c.081 0 .161-.017.236-.05a.614.614 0 0 0 .2-.144.707.707 0 0 0 .18-.47V3.523ZM8.875 6.175c-1.7 0-3.079 1.485-3.079 3.316 0 1.831 1.378 3.316 3.079 3.316 1.7 0 3.08-1.485 3.08-3.316 0-1.831-1.38-3.316-3.08-3.316Zm6.159 11.937H2.717c-1.02 0-1.847-.89-1.847-1.99V2.86C.87 1.761 1.697.87 2.717.87h12.317c1.02 0 1.847.89 1.847 1.99v13.262c0 1.1-.827 1.99-1.847 1.99Z" clip-rule="evenodd"/></g><defs><clipPath id="a"><path fill="#fff" d="M.87.87h16.038v17.272H.87z"/></clipPath></defs></svg>