<svg width="28" height="28" viewBox="0 0 28 28" fill="none" xmlns="http://www.w3.org/2000/svg">
<path d="M19.7552 15.1154L18.0605 13.4207L22.5394 8.94172L23.1195 9.52174C23.4951 9.89733 24.1272 9.82333 24.4029 9.36374L27.8831 3.56345C27.9772 3.40659 28.0162 3.22276 27.9939 3.04119C27.9715 2.85963 27.8891 2.69075 27.7597 2.56141L25.4396 0.241303C25.3102 0.111955 25.1413 0.0295562 24.9598 0.00720201C24.7782 -0.0151522 24.5944 0.0238215 24.4375 0.117928L18.6372 3.59812C18.1795 3.87276 18.1025 4.50483 18.4792 4.88152L19.0593 5.46153L14.5803 9.94048L12.8855 8.24572C13.4821 6.01677 12.8736 3.59325 11.1864 1.90593C9.07581 -0.204562 5.91636 -0.538592 3.44553 0.792332C3.33295 0.852972 3.23611 0.939091 3.16273 1.04381C3.08935 1.14854 3.04147 1.26897 3.02291 1.39548C3.00436 1.522 3.01563 1.65111 3.05584 1.77249C3.09605 1.89388 3.16409 2.00418 3.25451 2.0946L6.33297 5.17306C6.65283 5.49292 6.65283 6.01333 6.33297 6.33308C6.0131 6.65295 5.49275 6.653 5.17288 6.33308L2.09443 3.25457C2.00402 3.16413 1.89372 3.09608 1.77233 3.05585C1.65094 3.01563 1.52183 3.00435 1.3953 3.0229C1.26877 3.04146 1.14834 3.08935 1.04362 3.16274C0.938894 3.23614 0.852782 3.333 0.792159 3.44559C-0.533734 5.90718 -0.211845 9.06871 1.90587 11.1864C3.58941 12.8699 6.01168 13.4835 8.24565 12.8856L8.78017 13.4201L1.20319 20.9972C-0.400571 22.601 -0.401555 25.193 1.20319 26.7978C2.80241 28.3969 5.40448 28.397 7.00376 26.7978L14.5807 19.2206L15.1153 19.7553C14.5188 21.9842 15.1272 24.4077 16.8145 26.095C18.925 28.2056 22.0845 28.5396 24.5553 27.2087C24.6679 27.1481 24.7647 27.0619 24.8381 26.9572C24.9115 26.8525 24.9594 26.7321 24.9779 26.6055C24.9965 26.479 24.9852 26.3499 24.945 26.2285C24.9048 26.1071 24.8368 25.9968 24.7463 25.9064L21.6679 22.828C21.348 22.5081 21.348 21.9877 21.6679 21.6679C21.9877 21.3481 22.5082 21.3481 22.828 21.6679L25.9064 24.7464C25.9968 24.8368 26.1072 24.9048 26.2285 24.945C26.3499 24.9852 26.479 24.9965 26.6055 24.9779C26.732 24.9594 26.8525 24.9115 26.9572 24.8381C27.0619 24.7648 27.148 24.6679 27.2087 24.5554C28.5346 22.0938 28.2127 18.9323 26.095 16.8146C24.4115 15.1311 21.9892 14.5175 19.7552 15.1154ZM24.7324 1.85425L26.1467 3.26857L23.5367 7.61873L20.3822 4.46436L24.7324 1.85425ZM20.2193 6.62161L21.3794 7.78164L16.9004 12.2606L15.7403 11.1006L20.2193 6.62161ZM5.84368 25.6378C4.88414 26.5973 3.32281 26.5973 2.36322 25.6378C1.40045 24.675 1.39984 23.1207 2.36322 22.1573L9.94014 14.5802L13.4206 18.0607L5.84368 25.6378ZM26.1914 22.7113L23.988 20.5079C23.0286 19.5485 21.4674 19.5485 20.5079 20.5079C19.5484 21.4674 19.5484 23.0286 20.5079 23.9881L22.7113 26.1915C21.0372 26.6486 19.2378 26.1982 17.9746 24.9351C16.6377 23.5981 16.1837 21.5826 16.8182 19.8003C16.8702 19.6541 16.8797 19.4962 16.8456 19.3449C16.8115 19.1935 16.7351 19.0549 16.6254 18.9452L9.05574 11.3756C8.94603 11.2659 8.80746 11.1895 8.6561 11.1554C8.50474 11.1213 8.34682 11.1308 8.20065 11.1828C6.41828 11.8172 4.40283 11.3632 3.06589 10.0263C1.80273 8.76317 1.35238 6.96385 1.80945 5.28976L4.01286 7.49316C4.97229 8.4526 6.5335 8.45254 7.49305 7.49316C8.45248 6.53373 8.45248 4.97252 7.49305 4.01298L5.28964 1.80957C6.96367 1.35238 8.7631 1.80284 10.0263 3.06601C11.3632 4.40295 11.8172 6.41845 11.1827 8.20076C11.1307 8.34693 11.1212 8.50486 11.1553 8.65622C11.1894 8.80758 11.2658 8.94615 11.3755 9.05585L18.9451 16.6254C19.0548 16.7352 19.1934 16.8115 19.3447 16.8456C19.4961 16.8797 19.654 16.8702 19.8002 16.8182C21.5825 16.1838 23.598 16.6378 24.935 17.9747C26.1982 19.238 26.6485 21.0372 26.1914 22.7113Z" fill="white"/>
</svg>
