<?xml version="1.0" encoding="utf-8"?>
<svg viewBox="0 0 24 20" fill="none" xmlns="http://www.w3.org/2000/svg">
  <path d="M 23.9 2.8 L 23.9 17.2 C 23.9 17.833 23.676 18.373 23.225 18.825 C 22.774 19.277 22.234 19.501 21.6 19.5 L 2.4 19.5 C 1.767 19.5 0.101 17.834 0.1 17.2 L 0.1 2.8 C 0.1 2.167 0.324 1.627 0.776 1.176 C 1.228 0.725 1.768 0.501 2.4 0.5 L 21.6 0.5 C 22.233 0.5 22.773 0.724 23.225 1.176 C 23.677 1.628 23.901 2.167 23.9 2.8 Z M 12 11.082 L 2.5 5.144 L 2.5 2.98 L 11.947 8.885 L 12 8.918 L 12.053 8.885 L 21.653 2.885 L 21.949 2.7 L 21.6 2.7 L 2.4 2.7 L 2.3 17.2 L 2.3 17.3 L 2.4 17.3 L 21.6 17.3 L 21.7 17.3 L 21.7 17.2 L 21.7 5.2 L 21.7 2.736 L 21.645 5.115 L 12 11.082 Z" fill="white" stroke="#3BBAEC" stroke-width="0.2" transform="matrix(1.0000000000000002, 0, 0, 1.0000000000000002, 0, 8.881784197001252e-16)"/>
</svg>