<svg xmlns="http://www.w3.org/2000/svg" width="15" height="22" fill="none"><path fill="#fff" fill-rule="evenodd" d="M6.468.065A7.58 7.58 0 0 0 .382 5.232C-.392 7.619-.016 9.848 1.75 13.34c1.055 2.088 2.332 4.117 4.106 6.524C6.598 20.872 7.479 22 7.524 22c.018 0 .258-.295.532-.655 3.27-4.284 5.752-8.567 6.583-11.358.315-1.059.362-1.375.361-2.412-.001-.804-.016-1.013-.104-1.424-.622-2.929-2.676-5.145-5.473-5.907-.874-.238-2.068-.31-2.955-.179Zm1.92 4.365c1.082.335 1.878 1.15 2.219 2.272.149.49.149 1.257 0 1.746-.369 1.206-1.184 2.005-2.353 2.303-.736.188-1.67.055-2.325-.33-.67-.392-1.173-1.015-1.456-1.799-.112-.308-.122-.39-.122-1.024 0-.638.009-.717.126-1.057.285-.826.88-1.516 1.629-1.884.553-.272.916-.348 1.538-.323.277.01.606.053.743.096Z" clip-rule="evenodd"/></svg>