<svg width="15" height="22" viewBox="0 0 15 22" fill="none" xmlns="http://www.w3.org/2000/svg">
<path fill-rule="evenodd" clip-rule="evenodd" d="M6.46794 0.0652709C3.63102 0.486911 1.27153 2.48995 0.382145 5.2318C-0.392103 7.61854 -0.0159468 9.84839 1.74987 13.3403C2.8054 15.4276 4.0825 17.4566 5.85582 19.8638C6.59847 20.8719 7.47942 22 7.52401 22C7.54207 22 7.78164 21.7054 8.05643 21.3454C11.3266 17.0605 13.8081 12.7783 14.639 9.98662C14.9541 8.92825 15.0014 8.61177 15 7.57476C14.9989 6.7709 14.9837 6.56233 14.8962 6.15061C14.2736 3.22196 12.2204 1.00613 9.42276 0.243749C8.54858 0.00550267 7.35516 -0.0665776 6.46794 0.0652709ZM8.38736 4.42983C9.46992 4.76487 10.2657 5.57948 10.6067 6.70189C10.7556 7.19185 10.7555 7.95882 10.6063 8.44762C10.2383 9.65429 9.42271 10.4529 8.25448 10.7508C7.51846 10.9385 6.58394 10.8062 5.92912 10.4216C5.2599 10.0286 4.75592 9.40603 4.47252 8.62247C4.36085 8.3138 4.3511 8.23147 4.35083 7.59773C4.35056 6.9604 4.36004 6.88101 4.47707 6.5411C4.76156 5.71468 5.3578 5.02512 6.10569 4.65746C6.65922 4.38536 7.02161 4.30909 7.64425 4.33381C7.9207 4.34479 8.25001 4.38733 8.38736 4.42983Z" fill="white"/>
</svg>
