<svg width="37" height="36" viewBox="0 0 37 36" fill="none" xmlns="http://www.w3.org/2000/svg">
<circle cx="18.1719" cy="17.8887" r="17.8887" fill="#27A9DC"/>
<g clip-path="url(#clip0_696_43586)">
<path fill-rule="evenodd" clip-rule="evenodd" d="M27.7672 12.7242C27.1983 11.7122 26.5809 11.5261 25.3238 11.4553C24.0681 11.3701 20.9103 11.3347 18.1747 11.3347C15.4338 11.3347 12.2747 11.3701 11.0203 11.454C9.7658 11.5261 9.1471 11.7109 8.57297 12.7242C7.98703 13.7348 7.68555 15.4756 7.68555 18.5402V18.5507C7.68555 21.6023 7.98703 23.3562 8.57297 24.3563C9.1471 25.3683 9.76449 25.5518 11.0189 25.637C12.2747 25.7104 15.4338 25.7536 18.1747 25.7536C20.9103 25.7536 24.0681 25.7104 25.3251 25.6383C26.5822 25.5531 27.1996 25.3696 27.7685 24.3576C28.3597 23.3575 28.6585 21.6036 28.6585 18.552V18.5455V18.5416C28.6585 15.4756 28.3597 13.7348 27.7672 12.7242Z" fill="white"/>
<path fill-rule="evenodd" clip-rule="evenodd" d="M15.5503 22.4769V14.6121L22.1044 18.5445L15.5503 22.4769Z" fill="#27A9DC"/>
</g>
<defs>
<clipPath id="clip0_696_43586">
<rect width="20.973" height="20.973" fill="white" transform="translate(7.68555 7.40222)"/>
</clipPath>
</defs>
</svg>
