<svg width="37" height="37" viewBox="0 0 37 37" fill="none" xmlns="http://www.w3.org/2000/svg">
<g clip-path="url(#clip0_696_43578)">
<path d="M37.0001 18.0755C37.0001 8.09266 28.9074 0 18.9246 0C8.94178 0 0.849121 8.09266 0.849121 18.0755C0.849121 27.0975 7.45906 34.5753 16.1003 35.9313V23.3004H11.5108V18.0755H16.1003V14.0932C16.1003 9.56304 18.7989 7.06073 22.9276 7.06073C24.9053 7.06073 26.9738 7.41376 26.9738 7.41376V11.862H24.6945C22.4491 11.862 21.7489 13.2553 21.7489 14.6848V18.0755H26.762L25.9606 23.3004H21.7489V35.9313C30.3901 34.5753 37.0001 27.0975 37.0001 18.0755Z" fill="#27A9DC"/>
<path d="M25.9578 23.3003L26.7592 18.0754H21.7461V14.6847C21.7461 13.2553 22.4464 11.862 24.6917 11.862H26.9711V7.41371C26.9711 7.41371 24.9025 7.06067 22.9249 7.06067C18.7961 7.06067 16.0975 9.56299 16.0975 14.0932V18.0754H11.5081V23.3003H16.0975V35.9312C17.969 36.2241 19.8746 36.2241 21.7461 35.9312V23.3003H25.9578Z" fill="white"/>
</g>
<defs>
<clipPath id="clip0_696_43578">
<rect width="36.1509" height="36.1509" fill="white" transform="translate(0.849121)"/>
</clipPath>
</defs>
</svg>
