<svg width="37" height="36" viewBox="0 0 37 36" fill="none" xmlns="http://www.w3.org/2000/svg">
<circle cx="18.4546" cy="17.8887" r="17.8887" fill="#27A9DC"/>
<g clip-path="url(#clip0_696_43582)">
<path d="M18.5027 24.6207H19.6821C19.6821 24.6207 20.0387 24.5813 20.22 24.3851C20.3878 24.205 20.3816 23.8669 20.3816 23.8669C20.3816 23.8669 20.3582 22.2841 21.0935 22.0509C21.8177 21.8215 22.7479 23.5807 23.7336 24.258C24.4788 24.77 25.045 24.6577 25.045 24.6577L27.6815 24.6207C27.6815 24.6207 29.0607 24.5356 28.4069 23.4512C28.3538 23.3624 28.0257 22.6493 26.4465 21.1836C24.7934 19.6489 25.0154 19.8981 27.0066 17.2444C28.2193 15.6283 28.7042 14.6413 28.5525 14.2194C28.4081 13.8172 27.5161 13.9233 27.5161 13.9233L24.5503 13.9405C24.5503 13.9405 24.3307 13.9109 24.1666 14.0084C24.0075 14.1046 23.9051 14.3267 23.9051 14.3267C23.9051 14.3267 23.435 15.5777 22.8083 16.6411C21.487 18.8852 20.9578 19.0037 20.7419 18.8643C20.2397 18.5398 20.3656 17.559 20.3656 16.8632C20.3656 14.6882 20.695 13.7814 19.7228 13.547C19.3996 13.4693 19.1627 13.4175 18.3374 13.4088C17.2789 13.3977 16.3819 13.4125 15.8749 13.6605C15.5369 13.8258 15.2766 14.1947 15.4357 14.2157C15.6319 14.2416 16.076 14.3353 16.3116 14.6561C16.6164 15.0694 16.6053 15.9996 16.6053 15.9996C16.6053 15.9996 16.7804 18.5595 16.1969 18.8778C15.7959 19.0962 15.2469 18.6508 14.0688 16.614C13.4655 15.5715 13.009 14.418 13.009 14.418C13.009 14.418 12.9214 14.2033 12.7647 14.0886C12.5747 13.9492 12.3083 13.9048 12.3083 13.9048L9.48801 13.922C9.48801 13.922 9.06485 13.9344 8.9094 14.1182C8.77122 14.2823 8.8983 14.6203 8.8983 14.6203C8.8983 14.6203 11.1066 19.7858 13.6061 22.3902C15.8996 24.7774 18.5027 24.6207 18.5027 24.6207Z" fill="white"/>
</g>
<defs>
<clipPath id="clip0_696_43582">
<rect width="19.7393" height="19.7393" fill="white" transform="translate(8.84521 9.78406)"/>
</clipPath>
</defs>
</svg>
