<svg width="36" height="36" viewBox="0 0 36 36" fill="none" xmlns="http://www.w3.org/2000/svg">
<circle cx="17.8887" cy="17.8887" r="17.8887" fill="#27A9DC"/>
<g clip-path="url(#clip0_696_43592)">
<path fill-rule="evenodd" clip-rule="evenodd" d="M24.0336 17.1642H22.6398C22.7414 17.5887 22.8013 18.0323 22.8013 18.491C22.8013 21.4215 20.5959 23.7966 17.8751 23.7966C15.1545 23.7966 12.9489 21.4215 12.9489 18.491C12.9489 18.0323 13.0092 17.5887 13.1108 17.1642H11.7168V24.4596C11.7168 24.8254 11.9926 25.1223 12.3332 25.1223H23.4172C23.4981 25.1224 23.5782 25.1053 23.6529 25.072C23.7277 25.0388 23.7956 24.99 23.8528 24.9284C23.9101 24.8669 23.9555 24.7938 23.9865 24.7134C24.0175 24.633 24.0335 24.5467 24.0336 24.4596V17.1642ZM24.0336 12.5223C24.0336 12.4352 24.0176 12.3489 23.9866 12.2684C23.9556 12.1879 23.9102 12.1148 23.8529 12.0533C23.7957 11.9917 23.7278 11.9428 23.653 11.9096C23.5782 11.8763 23.4981 11.8592 23.4172 11.8592H21.5702C21.4069 11.8592 21.2502 11.9291 21.1347 12.0534C21.0192 12.1778 20.9543 12.3464 20.9543 12.5223V14.5122C20.9543 14.5993 20.9702 14.6855 21.0012 14.766C21.0321 14.8464 21.0775 14.9195 21.1347 14.9811C21.1919 15.0427 21.2598 15.0915 21.3345 15.1248C21.4092 15.1581 21.4893 15.1753 21.5702 15.1752H23.4172C23.4981 15.1753 23.5782 15.1582 23.653 15.1249C23.7278 15.0916 23.7957 15.0428 23.8529 14.9812C23.9102 14.9196 23.9556 14.8465 23.9866 14.766C24.0176 14.6856 24.0336 14.5993 24.0336 14.5122V12.5223ZM17.875 15.1752C16.1744 15.1752 14.796 16.6595 14.796 18.491C14.796 20.3221 16.1744 21.8072 17.875 21.8072C19.5756 21.8072 20.9543 20.3221 20.9543 18.491C20.9543 16.6595 19.5756 15.1752 17.875 15.1752ZM24.0336 27.1124H11.7167C10.6967 27.1124 9.86963 26.2215 9.86963 25.1221V11.8592C9.86963 10.7606 10.6967 9.87012 11.7167 9.87012H24.0336C25.0537 9.87012 25.8806 10.7606 25.8806 11.8592V25.1221C25.8805 26.2215 25.0537 27.1124 24.0336 27.1124Z" fill="white"/>
</g>
<defs>
<clipPath id="clip0_696_43592">
<rect width="16.0382" height="17.2719" fill="white" transform="translate(9.86963 9.87012)"/>
</clipPath>
</defs>
</svg>
