<svg viewBox="0 0 1024 1024" xmlns="http://www.w3.org/2000/svg" xml:space="preserve"><path d="M945.6 899 767.2 720.6c-1.1-1.1-2.6-1.6-3.8-2.6 58.7-68.9 94.4-158 94.4-255.6C857.8 244.6 681.2 68 463.4 68 245.6 68 69.1 244.6 69.1 462.4c0 34.8 5 68.3 13.4 100.5 10.2-15.6 36.7-52.4 52.5-59.2-1.7-13.5-2.8-27.2-2.8-41.2 0-182.9 148.3-331.3 331.3-331.3s331.3 148.3 331.3 331.3C794.7 606.1 703 728.2 575 774c-6.1 26-15.9 50.7-29.3 73.7 65.6-14 125.3-44.1 174.4-86.3.9 1.2 1.4 2.6 2.5 3.8l178.5 178.4c12.3 12.4 32.3 12.4 44.6 0 12.3-12.2 12.3-32.2-.1-44.6zM480.4 541.4C435 496 374.6 471 310.3 471s-124.7 25-170.1 70.4c-45.5 45.4-70.5 105.8-70.5 170.1s25 124.7 70.5 170.1C185.7 927 246.1 952 310.3 952c64.3 0 124.7-25 170.1-70.5 45.4-45.4 70.4-105.8 70.4-170.1.1-64.2-25-124.6-70.4-170zM435.8 837c-33.5 33.5-78.1 52-125.5 52-47.4 0-92-18.5-125.5-52s-52-78.1-52-125.5c0-47.4 18.5-92 52-125.5s78.1-52 125.5-52c47.4 0 92 18.5 125.5 52s52 78.1 52 125.5c0 47.4-18.5 92-52 125.5zm-14.9-236.1c-12.3-12.3-32.3-12.3-44.6 0l-66 66-66-66c-12.3-12.3-32.3-12.3-44.6 0-12.3 12.3-12.3 32.3 0 44.6l66 66-66 66c-12.3 12.3-12.3 32.3 0 44.6 6.2 6.2 14.2 9.2 22.3 9.2 8.1 0 16.2-3.1 22.3-9.2l66-66 66 66c6.2 6.2 14.2 9.2 22.3 9.2 8.1 0 16.2-3.1 22.3-9.2 12.3-12.3 12.3-32.3 0-44.6l-66-66 66-66c12.3-12.3 12.3-32.3 0-44.6z" fill="#27a9dc"></path></svg>