<svg width="33" height="30" viewBox="0 0 33 30" fill="none" xmlns="http://www.w3.org/2000/svg">
<rect width="33" height="30" rx="3" fill="url(#paint0_linear_180_12191)"/>
<path d="M23.75 16.8846L20.439 15.4003L20.4263 15.3946C20.2111 15.3018 19.9761 15.2645 19.7427 15.286C19.5093 15.3075 19.285 15.3871 19.0904 15.5177C19.0631 15.5359 19.0368 15.5557 19.0116 15.5767L17.443 16.9127C16.5289 16.417 15.5846 15.4804 15.0882 14.5776L16.4284 12.9843C16.4499 12.9586 16.4699 12.9316 16.4881 12.9035C16.6152 12.7095 16.6924 12.4871 16.7128 12.2561C16.7331 12.0251 16.6961 11.7927 16.6048 11.5795C16.6027 11.5754 16.6008 11.5712 16.5992 11.5668L15.1156 8.25018C14.9939 7.97281 14.786 7.74202 14.5229 7.59196C14.2597 7.4419 13.9553 7.38055 13.6545 7.41698C12.6339 7.55106 11.6969 8.05209 11.0186 8.8265C10.3403 9.60091 9.96716 10.5957 9.96876 11.6252C9.96876 17.3634 14.6368 22.0314 20.375 22.0314C21.4045 22.033 22.3993 21.6598 23.1737 20.9816C23.9481 20.3033 24.4491 19.3663 24.5832 18.3456C24.6196 18.0449 24.5583 17.7405 24.4082 17.4773C24.2582 17.2142 24.0274 17.0063 23.75 16.8846ZM20.375 20.3439C18.0635 20.3411 15.8475 19.4217 14.213 17.7872C12.5785 16.1527 11.659 13.9367 11.6563 11.6252C11.6546 11.0426 11.8524 10.4771 12.2167 10.0225C12.581 9.5679 13.0899 9.25164 13.6588 9.12627L14.982 12.0794L13.6348 13.6839C13.6131 13.7099 13.5929 13.7371 13.5744 13.7655C13.4416 13.9684 13.3635 14.2022 13.3478 14.4441C13.332 14.6861 13.3791 14.928 13.4844 15.1464C14.1467 16.5021 15.5115 17.8577 16.8812 18.5214C17.101 18.6257 17.3442 18.6711 17.5869 18.6532C17.8295 18.6353 18.0634 18.5548 18.2656 18.4195C18.2928 18.4011 18.3189 18.3812 18.3437 18.3597L19.9208 17.0189L22.8739 18.3414C22.7485 18.9103 22.4323 19.4192 21.9777 19.7835C21.5231 20.1478 20.9575 20.3455 20.375 20.3439Z" fill="white"/>
<defs>
<linearGradient id="paint0_linear_180_12191" x1="16.5" y1="0" x2="16.5" y2="30" gradientUnits="userSpaceOnUse">
<stop stop-color="#53CFFF"/>
<stop offset="1" stop-color="#32B2E4"/>
</linearGradient>
</defs>
</svg>
