<svg width="25" height="25" viewBox="0 0 25 25" fill="none" xmlns="http://www.w3.org/2000/svg">
<path d="M9.46248 3.27081C9.10398 2.37457 8.23595 1.78688 7.27066 1.78688H4.02328C2.78814 1.78688 1.78687 2.7882 1.78687 4.02334C1.78687 14.522 10.2979 23.0327 20.7966 23.0327C22.0317 23.0327 23.0328 22.0316 23.0328 20.7964L23.0326 17.549C23.0326 16.5837 22.4449 15.7158 21.5486 15.3573L18.4379 14.1129C17.6328 13.7909 16.7163 13.936 16.0502 14.4911L15.2462 15.1608C14.3083 15.9425 12.9291 15.88 12.0658 15.0166L9.8029 12.7539C8.93957 11.8906 8.87736 10.5113 9.65898 9.57337L10.3287 8.76967C10.8838 8.10356 11.0289 7.1868 10.7068 6.38174L9.46248 3.27081Z" stroke="white" stroke-width="2" stroke-linecap="round" stroke-linejoin="round"/>
</svg>
