<svg width="66" height="66" viewBox="0 0 66 66" fill="none" xmlns="http://www.w3.org/2000/svg">
<path d="M0 0H62C64.2091 0 66 1.79086 66 4V62C66 64.2091 64.2091 66 62 66H0V0Z" fill="url(#paint0_linear_65_3930)"/>
<path fill-rule="evenodd" clip-rule="evenodd" d="M32.6115 23C27.3032 23 23 27.2082 23 32.3993C23 37.5903 27.3032 41.7985 32.6115 41.7985C34.8819 41.7985 36.9684 41.0287 38.613 39.7415L41.7371 42.7886L41.8202 42.8586C42.1102 43.0685 42.5214 43.0446 42.7839 42.7873C43.0726 42.5043 43.072 42.0459 42.7825 41.7636L39.6952 38.7523C41.2649 37.0794 42.2231 34.8487 42.2231 32.3993C42.2231 27.2082 37.9198 23 32.6115 23ZM32.6115 24.4477C37.1022 24.4477 40.7426 28.0078 40.7426 32.3993C40.7426 36.7908 37.1022 40.3508 32.6115 40.3508C28.1209 40.3508 24.4804 36.7908 24.4804 32.3993C24.4804 28.0078 28.1209 24.4477 32.6115 24.4477Z" fill="white"/>
<defs>
<linearGradient id="paint0_linear_65_3930" x1="33" y1="0" x2="33" y2="66" gradientUnits="userSpaceOnUse">
<stop stop-color="#53CFFF"/>
<stop offset="1" stop-color="#32B2E4"/>
</linearGradient>
</defs>
</svg>
