<svg viewBox="0 0 252.9 252.9" xmlns="http://www.w3.org/2000/svg" fill="#27a9dc" xml:space="preserve"><path d="M120.832 173.379s-.281 0 0 0c-2.53 0-4.777-1.124-6.182-2.81l-47.77-53.39c-3.091-3.372-2.81-8.711.562-11.802 3.372-3.091 8.71-2.81 11.802.562l41.588 46.646L238.29 35.127c3.372-3.372 8.71-3.372 11.802 0 3.372 3.372 3.372 8.71 0 11.802l-123.64 123.64c-1.405 1.967-3.372 2.81-5.62 2.81z"></path><path d="M126.452 252.902c-69.688 0-126.45-56.762-126.45-126.45S56.764.002 126.452.002c4.777 0 8.43 3.653 8.43 8.43s-3.653 8.43-8.43 8.43c-60.415 0-109.59 49.175-109.59 109.59s49.175 109.59 109.59 109.59 109.59-49.175 109.59-109.59c0-4.777 3.653-8.43 8.43-8.43s8.43 3.653 8.43 8.43c0 69.688-56.762 126.45-126.45 126.45z"></path></svg>