<svg width="20" height="20" viewBox="0 0 20 20" fill="none" xmlns="http://www.w3.org/2000/svg">
<path d="M7.80297 4.41691C7.55228 1.53335 4.54403 0.118477 4.41672 0.0607265C4.2977 0.00477952 4.16433 -0.0130955 4.03478 0.00953905C0.561904 0.585726 0.039529 2.60698 0.018529 2.69098C-0.0100424 2.80803 -0.00549811 2.93073 0.031654 3.04535C4.1739 15.8974 12.7826 18.2795 15.6123 19.0631C15.8302 19.1235 16.01 19.172 16.1465 19.2167C16.3023 19.2676 16.4715 19.2577 16.6203 19.1891C16.707 19.1497 18.7518 18.1863 19.2519 15.0442C19.2741 14.9071 19.252 14.7664 19.1889 14.6426C19.1443 14.556 18.0746 12.5203 15.1083 11.801C15.0077 11.7753 14.9023 11.7744 14.8013 11.7984C14.7002 11.8224 14.6065 11.8706 14.5282 11.9389C13.5924 12.7382 12.2996 13.59 11.7418 13.6779C8.00247 11.8496 5.91428 8.34129 5.83553 7.67585C5.78959 7.30179 6.64665 5.98798 7.63234 4.9196C7.69429 4.85236 7.74148 4.7729 7.77087 4.68632C7.80025 4.59974 7.81119 4.50797 7.80297 4.41691Z" fill="white"/>
</svg>
