<svg xmlns="http://www.w3.org/2000/svg" width="20" height="20" fill="none"><path fill="#fff" d="M7.803 4.417C7.553 1.533 4.544.118 4.417.06A.64.64 0 0 0 4.035.01C.562.586.04 2.607.019 2.69a.65.65 0 0 0 .013.354c4.142 12.852 12.75 15.235 15.58 16.018.218.06.398.109.534.154a.65.65 0 0 0 .474-.028c.087-.04 2.132-1.003 2.632-4.145a.654.654 0 0 0-.063-.401c-.045-.087-1.114-2.123-4.08-2.842a.641.641 0 0 0-.58.138c-.937.8-2.23 1.651-2.787 1.739-3.74-1.828-5.828-5.337-5.906-6.002-.046-.374.81-1.688 1.796-2.756a.655.655 0 0 0 .171-.503Z"/></svg>