<svg width="36" height="36" viewBox="0 0 36 36" fill="none" xmlns="http://www.w3.org/2000/svg">
<rect width="36" height="36" rx="4" fill="url(#paint0_linear_65_3376)"/>
<path d="M23.25 12H20.5V11.5C20.5 10.6729 19.8271 10 19 10H17C16.1729 10 15.5 10.6729 15.5 11.5V12H12.75C12.0608 12 11.5 12.5608 11.5 13.25V15C11.5 15.2761 11.7239 15.5 12 15.5H12.2733L12.7052 24.5713C12.7434 25.3725 13.4015 26 14.2035 26H21.7965C22.5985 26 23.2567 25.3725 23.2948 24.5713L23.7268 15.5H24C24.2761 15.5 24.5 15.2761 24.5 15V13.25C24.5 12.5608 23.9392 12 23.25 12ZM16.5 11.5C16.5 11.2243 16.7243 11 17 11H19C19.2757 11 19.5 11.2243 19.5 11.5V12H16.5V11.5ZM12.5 13.25C12.5 13.1122 12.6122 13 12.75 13H23.25C23.3878 13 23.5 13.1122 23.5 13.25V14.5C23.3459 14.5 13.1385 14.5 12.5 14.5V13.25ZM22.2959 24.5238C22.2832 24.7908 22.0638 25 21.7965 25H14.2035C13.9362 25 13.7168 24.7908 13.7041 24.5238L13.2744 15.5H22.7256L22.2959 24.5238Z" fill="white"/>
<path d="M18 24C18.2761 24 18.5 23.7761 18.5 23.5V17C18.5 16.7239 18.2761 16.5 18 16.5C17.7239 16.5 17.5 16.7239 17.5 17V23.5C17.5 23.7761 17.7238 24 18 24Z" fill="white"/>
<path d="M20.5 24C20.7761 24 21 23.7761 21 23.5V17C21 16.7239 20.7761 16.5 20.5 16.5C20.2239 16.5 20 16.7239 20 17V23.5C20 23.7761 20.2238 24 20.5 24Z" fill="white"/>
<path d="M15.5 24C15.7761 24 16 23.7761 16 23.5V17C16 16.7239 15.7761 16.5 15.5 16.5C15.2239 16.5 15 16.7239 15 17V23.5C15 23.7761 15.2238 24 15.5 24Z" fill="white"/>
<defs>
<linearGradient id="paint0_linear_65_3376" x1="18" y1="0" x2="18" y2="36" gradientUnits="userSpaceOnUse">
<stop stop-color="#53CFFF"/>
<stop offset="1" stop-color="#32B2E4"/>
</linearGradient>
</defs>
</svg>
