<svg width="17" height="19" viewBox="0 0 17 19" fill="none" xmlns="http://www.w3.org/2000/svg">
<g clip-path="url(#clip0_696_43595)">
<path fill-rule="evenodd" clip-rule="evenodd" d="M15.0336 8.1642H13.6398C13.7414 8.58873 13.8013 9.03231 13.8013 9.49097C13.8013 12.4215 11.5959 14.7966 8.87513 14.7966C6.15453 14.7966 3.94894 12.4215 3.94894 9.49097C3.94894 9.03231 4.0092 8.58873 4.11076 8.1642H2.71679V15.4596C2.71679 15.8254 2.99261 16.1223 3.33322 16.1223H14.4172C14.4981 16.1224 14.5782 16.1053 14.6529 16.072C14.7277 16.0388 14.7956 15.99 14.8528 15.9284C14.9101 15.8669 14.9555 15.7938 14.9865 15.7134C15.0175 15.633 15.0335 15.5467 15.0336 15.4596V8.1642ZM15.0336 3.5223C15.0336 3.43517 15.0176 3.3489 14.9866 3.26842C14.9556 3.18794 14.9102 3.11483 14.8529 3.05325C14.7957 2.99168 14.7278 2.94285 14.653 2.90955C14.5782 2.87626 14.4981 2.85916 14.4172 2.85922H12.5702C12.4069 2.85922 12.2502 2.92907 12.1347 3.05342C12.0192 3.17777 11.9543 3.34643 11.9543 3.5223V5.51216C11.9543 5.59925 11.9702 5.68549 12.0012 5.76595C12.0321 5.84641 12.0775 5.91951 12.1347 5.98109C12.1919 6.04266 12.2598 6.0915 12.3345 6.12482C12.4092 6.15813 12.4893 6.17527 12.5702 6.17525H14.4172C14.4981 6.17531 14.5782 6.1582 14.653 6.12491C14.7278 6.09162 14.7957 6.04279 14.8529 5.98122C14.9102 5.91964 14.9556 5.84652 14.9866 5.76604C15.0176 5.68556 15.0336 5.59929 15.0336 5.51216V3.5223ZM8.87499 6.17525C7.17437 6.17525 5.79596 7.65953 5.79596 9.49097C5.79596 11.3221 7.17437 12.8072 8.87499 12.8072C10.5756 12.8072 11.9543 11.3221 11.9543 9.49097C11.9543 7.65953 10.5756 6.17525 8.87499 6.17525ZM15.0336 18.1124H2.71665C1.69667 18.1124 0.869629 17.2215 0.869629 16.1221V2.85922C0.869629 1.76063 1.69667 0.870117 2.71665 0.870117H15.0336C16.0537 0.870117 16.8806 1.76063 16.8806 2.85922V16.1221C16.8805 17.2215 16.0537 18.1124 15.0336 18.1124Z" fill="white"/>
</g>
<defs>
<clipPath id="clip0_696_43595">
<rect width="16.0382" height="17.2719" fill="white" transform="translate(0.869629 0.870117)"/>
</clipPath>
</defs>
</svg>
