<svg width="22" height="13" viewBox="0 0 22 13" fill="none" xmlns="http://www.w3.org/2000/svg">
<path d="M20.504 12.381H18.222C17.359 12.381 17.099 11.682 15.552 10.134C14.2 8.83097 13.629 8.66897 13.287 8.66897C12.814 8.66897 12.685 8.79897 12.685 9.44997V11.502C12.685 12.057 12.505 12.382 11.055 12.382C9.64829 12.2875 8.28416 11.8601 7.07497 11.1351C5.86578 10.4101 4.84612 9.40824 4.1 8.21197C2.32839 6.00699 1.09571 3.41905 0.5 0.653967C0.5 0.311967 0.63 0.00196716 1.282 0.00196716H3.562C4.148 0.00196716 4.359 0.262967 4.589 0.865967C5.696 4.12397 7.585 6.95797 8.352 6.95797C8.646 6.95797 8.774 6.82797 8.774 6.09497V2.73897C8.677 1.20797 7.864 1.07897 7.864 0.524967C7.87428 0.378808 7.94114 0.242416 8.05037 0.14476C8.15961 0.0471049 8.30261 -0.00411965 8.449 0.00196716H12.033C12.523 0.00196716 12.685 0.245967 12.685 0.831967V5.36197C12.685 5.85097 12.895 6.01297 13.043 6.01297C13.337 6.01297 13.563 5.85097 14.102 5.31297C15.2574 3.90395 16.2013 2.33413 16.904 0.652967C16.9759 0.45112 17.1119 0.278342 17.2912 0.160984C17.4705 0.0436269 17.6832 -0.0118671 17.897 0.00296708H20.178C20.862 0.00296708 21.007 0.344967 20.862 0.832967C20.0324 2.69138 19.0058 4.45547 17.8 6.09497C17.554 6.46997 17.456 6.66497 17.8 7.10497C18.026 7.44697 18.826 8.11497 19.363 8.74997C20.145 9.52997 20.794 10.432 21.285 11.42C21.481 12.056 21.155 12.381 20.504 12.381Z" fill="#27A9DC"/>
</svg>
