<svg width="19" height="19" viewBox="0 0 19 19" fill="none" xmlns="http://www.w3.org/2000/svg">
<path d="M7.44389 2.97358C7.18497 2.3263 6.55806 1.90186 5.86091 1.90186H3.51558C2.62353 1.90186 1.90039 2.62503 1.90039 3.51707C1.90039 11.0994 8.04728 17.2461 15.6296 17.2461C16.5217 17.2461 17.2447 16.523 17.2447 15.631L17.2446 13.2856C17.2446 12.5885 16.8201 11.9616 16.1728 11.7027L13.9261 10.804C13.3447 10.5714 12.6827 10.6762 12.2017 11.0771L11.621 11.5608C10.9436 12.1253 9.94759 12.0802 9.32407 11.4567L7.68975 9.82248C7.06623 9.19897 7.0213 8.20284 7.58581 7.52543L8.06948 6.94498C8.47038 6.4639 8.57516 5.8018 8.34259 5.22036L7.44389 2.97358Z" stroke="white" stroke-width="2" stroke-linecap="round" stroke-linejoin="round"/>
</svg>
